<svg version="1.1" style="font-family:&quot;Lucida Grande&quot;, &quot;Lucida Sans Unicode&quot;, Arial, Helvetica, sans-serif;font-size:12px;" xmlns="http://www.w3.org/2000/svg" width="1035" height="450"><desc>Created with Highcharts 4.1.5</desc><defs><clipPath id="highcharts-9"><rect x="0" y="0" width="779" height="404"></rect></clipPath></defs><rect x="0" y="0" width="1035" height="450" strokeWidth="0" fill="#FFFFFF" class=" highcharts-background"></rect><g class="highcharts-grid" zIndex="1"></g><g class="highcharts-grid" zIndex="1"><path fill="none" d="M 70 414.5 L 849 414.5" stroke="#D8D8D8" stroke-width="1" zIndex="1" opacity="1"></path><path fill="none" d="M 70 356.5 L 849 356.5" stroke="#D8D8D8" stroke-width="1" zIndex="1" opacity="1"></path><path fill="none" d="M 70 299.5 L 849 299.5" stroke="#D8D8D8" stroke-width="1" zIndex="1" opacity="1"></path><path fill="none" d="M 70 241.5 L 849 241.5" stroke="#D8D8D8" stroke-width="1" zIndex="1" opacity="1"></path><path fill="none" d="M 70 183.5 L 849 183.5" stroke="#D8D8D8" stroke-width="1" zIndex="1" opacity="1"></path><path fill="none" d="M 70 125.5 L 849 125.5" stroke="#D8D8D8" stroke-width="1" zIndex="1" opacity="1"></path><path fill="none" d="M 70 68.5 L 849 68.5" stroke="#D8D8D8" stroke-width="1" zIndex="1" opacity="1"></path><path fill="none" d="M 70 9.5 L 849 9.5" stroke="#D8D8D8" stroke-width="1" zIndex="1" opacity="1"></path></g><g class="highcharts-axis" zIndex="2"><path fill="none" d="M 140.5 414 L 140.5 424" stroke="#C0D0E0" stroke-width="1" opacity="1"></path><path fill="none" d="M 237.5 414 L 237.5 424" stroke="#C0D0E0" stroke-width="1" opacity="1"></path><path fill="none" d="M 333.5 414 L 333.5 424" stroke="#C0D0E0" stroke-width="1" opacity="1"></path><path fill="none" d="M 427.5 414 L 427.5 424" stroke="#C0D0E0" stroke-width="1" opacity="1"></path><path fill="none" d="M 522.5 414 L 522.5 424" stroke="#C0D0E0" stroke-width="1" opacity="1"></path><path fill="none" d="M 619.5 414 L 619.5 424" stroke="#C0D0E0" stroke-width="1" opacity="1"></path><path fill="none" d="M 715.5 414 L 715.5 424" stroke="#C0D0E0" stroke-width="1" opacity="1"></path><path fill="none" d="M 809.5 414 L 809.5 424" stroke="#C0D0E0" stroke-width="1" opacity="1"></path><path fill="none" d="M 70 414.5 L 849 414.5" stroke="#C0D0E0" stroke-width="1" zIndex="7" visibility="visible"></path></g><g class="highcharts-axis" zIndex="2"><text x="24.140625" zIndex="7" text-anchor="middle" transform="translate(0,0) rotate(270 24.140625 212)" class=" highcharts-yaxis-title" style="color:#707070;fill:#707070;" visibility="visible" y="212"><tspan>Popularity Changes</tspan></text></g><g class="highcharts-series-group" zIndex="3"><path fill="rgba(139,188,33,0.25)" d="M 0 0"></path><path fill="rgba(51,0,170,0.25)" d="M 0 0"></path><path fill="rgba(145,0,0,0.25)" d="M 0 0"></path><path fill="rgba(0,170,0,0.25)" d="M 0 0"></path><path fill="rgba(13,35,58,0.25)" d="M 0 0"></path><path fill="rgba(244,37,37,0.25)" d="M 0 0"></path><g class="highcharts-series" visibility="visible" zIndex="0.1" transform="translate(70,10) scale(1 1)" clip-path="url(#highcharts-9)"><path fill="none" d="M 7.637254901960785 288.57142857142856 L 40.06943325275316 284.2313142857143 L 71.45541230190707 284.5314285714286 L 103.88759065269944 280.1682285714286 L 136.3197690034918 268.69462857142855 L 167.70574805264573 259.96822857142854 L 200.1379264034381 245.67817142857143 L 231.523905452592 221.06879999999995 L 263.9560838033844 217.25965714285715 L 296.38826215417674 228.59474285714285 L 325.68184260005376 220.05302857142854 L 358.1140209508461 224.2777142857143 L 389.5 221.41508571428568 L 421.9321783507924 216.7056 L 453.3181573999463 206.89417142857144 L 485.75033575073866 204.9549714285714 L 518.1825141015311 192.78879999999995 L 549.568493150685 160.74582857142855 L 582.0006715014773 139.99177142857138 L 613.3866505506312 120.96914285714286 L 645.8188289014237 102.89302857142854 L 678.251007252216 90.2420571428571 L 707.544587698093 77.45257142857145 L 739.9767660488853 53.55885714285711 L 771.3627450980392 40.95405714285715" stroke="#3300aa" stroke-width="2" zIndex="1" stroke-linejoin="round" stroke-linecap="round"></path><path fill="none" d="M -2.3627450980392153 288.57142857142856 L 7.637254901960785 288.57142857142856 L 40.06943325275316 284.2313142857143 L 71.45541230190707 284.5314285714286 L 103.88759065269944 280.1682285714286 L 136.3197690034918 268.69462857142855 L 167.70574805264573 259.96822857142854 L 200.1379264034381 245.67817142857143 L 231.523905452592 221.06879999999995 L 263.9560838033844 217.25965714285715 L 296.38826215417674 228.59474285714285 L 325.68184260005376 220.05302857142854 L 358.1140209508461 224.2777142857143 L 389.5 221.41508571428568 L 421.9321783507924 216.7056 L 453.3181573999463 206.89417142857144 L 485.75033575073866 204.9549714285714 L 518.1825141015311 192.78879999999995 L 549.568493150685 160.74582857142855 L 582.0006715014773 139.99177142857138 L 613.3866505506312 120.96914285714286 L 645.8188289014237 102.89302857142854 L 678.251007252216 90.2420571428571 L 707.544587698093 77.45257142857145 L 739.9767660488853 53.55885714285711 L 771.3627450980392 40.95405714285715 L 781.3627450980392 40.95405714285715" stroke-linejoin="round" visibility="visible" stroke="rgba(192,192,192,0.0001)" stroke-width="22" zIndex="2" class=" highcharts-tracker" style=""></path></g><g class="highcharts-markers highcharts-tracker" visibility="visible" zIndex="0.1" transform="translate(70,10) scale(1 1)" clip-path="url(#highcharts-10)" style=""><path fill="#3300aa" d="M 767 36.95405714285715 L 775 36.95405714285715 771 44.95405714285715 Z"></path><path fill="#3300aa" d="M 735 49.55885714285711 L 743 49.55885714285711 739 57.55885714285711 Z"></path><path fill="#3300aa" d="M 703 73.45257142857145 L 711 73.45257142857145 707 81.45257142857145 Z"></path><path fill="#3300aa" d="M 674 86.2420571428571 L 682 86.2420571428571 678 94.2420571428571 Z"></path><path fill="#3300aa" d="M 641.8188289014237 98.89302857142854 L 649.8188289014237 98.89302857142854 645.8188289014237 106.89302857142854 Z" stroke-width="1"></path><path fill="#3300aa" d="M 609 116.96914285714286 L 617 116.96914285714286 613 124.96914285714286 Z"></path><path fill="#3300aa" d="M 578.0006715014773 135.99177142857138 L 586.0006715014773 135.99177142857138 582.0006715014773 143.99177142857138 Z" stroke-width="1"></path><path fill="#3300aa" d="M 545.568493150685 156.74582857142855 L 553.568493150685 156.74582857142855 549.568493150685 164.74582857142855 Z" stroke-width="1"></path><path fill="#3300aa" d="M 514.1825141015311 188.78879999999995 L 522.1825141015311 188.78879999999995 518.1825141015311 196.78879999999995 Z" stroke-width="1"></path><path fill="#3300aa" d="M 481.75033575073866 200.9549714285714 L 489.75033575073866 200.9549714285714 485.75033575073866 208.9549714285714 Z" stroke-width="1"></path><path fill="#3300aa" d="M 449.3181573999463 202.89417142857144 L 457.3181573999463 202.89417142857144 453.3181573999463 210.89417142857144 Z" stroke-width="1"></path><path fill="#3300aa" d="M 417 212.7056 L 425 212.7056 421 220.7056 Z"></path><path fill="#3300aa" d="M 385 217.41508571428568 L 393 217.41508571428568 389 225.41508571428568 Z"></path><path fill="#3300aa" d="M 354 220.2777142857143 L 362 220.2777142857143 358 228.2777142857143 Z"></path><path fill="#3300aa" d="M 321 216.05302857142854 L 329 216.05302857142854 325 224.05302857142854 Z"></path><path fill="#3300aa" d="M 292 224.59474285714285 L 300 224.59474285714285 296 232.59474285714285 Z"></path><path fill="#3300aa" d="M 259 213.25965714285715 L 267 213.25965714285715 263 221.25965714285715 Z"></path><path fill="#3300aa" d="M 227.523905452592 217.06879999999995 L 235.523905452592 217.06879999999995 231.523905452592 225.06879999999995 Z" stroke-width="1"></path><path fill="#3300aa" d="M 196 241.67817142857143 L 204 241.67817142857143 200 249.67817142857143 Z"></path><path fill="#3300aa" d="M 163 255.96822857142854 L 171 255.96822857142854 167 263.96822857142854 Z"></path><path fill="#3300aa" d="M 132 264.69462857142855 L 140 264.69462857142855 136 272.69462857142855 Z"></path><path fill="#3300aa" d="M 99 276.1682285714286 L 107 276.1682285714286 103 284.1682285714286 Z"></path><path fill="#3300aa" d="M 67 280.5314285714286 L 75 280.5314285714286 71 288.5314285714286 Z"></path><path fill="#3300aa" d="M 36 280.2313142857143 L 44 280.2313142857143 40 288.2313142857143 Z"></path><path fill="#3300aa" d="M 3.6372549019607847 284.57142857142856 L 11.637254901960784 284.57142857142856 7.637254901960785 292.57142857142856 Z" stroke-width="1"></path></g><g class="highcharts-series" visibility="visible" zIndex="0.1" transform="translate(70,10) scale(1 1)" clip-path="url(#highcharts-9)"><path fill="none" d="M 7.637254901960785 288.57142857142856 L 40.06943325275316 272.1113142857143 L 71.45541230190707 263.54651428571424 L 103.88759065269944 257.1517714285714 L 136.3197690034918 245.0086857142857 L 167.70574805264573 239.26034285714286 L 200.1379264034381 234.92022857142857 L 231.523905452592 224.9241142857143 L 263.9560838033844 215.55131428571428 L 296.38826215417674 213.35817142857138 L 325.68184260005376 202.66948571428568 L 358.1140209508461 204.5856 L 389.5 206.34011428571426 L 421.9321783507924 190.80342857142858 L 453.3181573999463 189.81074285714283 L 485.75033575073866 196.5286857142857 L 518.1825141015311 199.52982857142857 L 549.568493150685 180.55337142857144 L 582.0006715014773 168.8950857142857 L 613.3866505506312 148.8336 L 645.8188289014237 139.39154285714284 L 678.251007252216 130.2957714285714 L 707.544587698093 126.46354285714284 L 739.9767660488853 114.5051428571428 L 771.3627450980392 99.49942857142855" stroke="#8bbc21" stroke-width="2" zIndex="1" stroke-linejoin="round" stroke-linecap="round"></path><path fill="none" d="M -2.3627450980392153 288.57142857142856 L 7.637254901960785 288.57142857142856 L 40.06943325275316 272.1113142857143 L 71.45541230190707 263.54651428571424 L 103.88759065269944 257.1517714285714 L 136.3197690034918 245.0086857142857 L 167.70574805264573 239.26034285714286 L 200.1379264034381 234.92022857142857 L 231.523905452592 224.9241142857143 L 263.9560838033844 215.55131428571428 L 296.38826215417674 213.35817142857138 L 325.68184260005376 202.66948571428568 L 358.1140209508461 204.5856 L 389.5 206.34011428571426 L 421.9321783507924 190.80342857142858 L 453.3181573999463 189.81074285714283 L 485.75033575073866 196.5286857142857 L 518.1825141015311 199.52982857142857 L 549.568493150685 180.55337142857144 L 582.0006715014773 168.8950857142857 L 613.3866505506312 148.8336 L 645.8188289014237 139.39154285714284 L 678.251007252216 130.2957714285714 L 707.544587698093 126.46354285714284 L 739.9767660488853 114.5051428571428 L 771.3627450980392 99.49942857142855 L 781.3627450980392 99.49942857142855" stroke-linejoin="round" visibility="visible" stroke="rgba(192,192,192,0.0001)" stroke-width="22" zIndex="2" class=" highcharts-tracker" style=""></path></g><g class="highcharts-markers highcharts-tracker" visibility="visible" zIndex="0.1" transform="translate(70,10) scale(1 1)" clip-path="url(#highcharts-10)" style=""><path fill="#8bbc21" d="M 771 95.49942857142855 C 776.328 95.49942857142855 776.328 103.49942857142855 771 103.49942857142855 C 765.672 103.49942857142855 765.672 95.49942857142855 771 95.49942857142855 Z"></path><path fill="#8bbc21" d="M 739 110.5051428571428 C 744.328 110.5051428571428 744.328 118.5051428571428 739 118.5051428571428 C 733.672 118.5051428571428 733.672 110.5051428571428 739 110.5051428571428 Z"></path><path fill="#8bbc21" d="M 707 122.46354285714284 C 712.328 122.46354285714284 712.328 130.46354285714284 707 130.46354285714284 C 701.672 130.46354285714284 701.672 122.46354285714284 707 122.46354285714284 Z"></path><path fill="#8bbc21" d="M 678 126.29577142857141 C 683.328 126.29577142857141 683.328 134.2957714285714 678 134.2957714285714 C 672.672 134.2957714285714 672.672 126.29577142857141 678 126.29577142857141 Z"></path><path fill="#8bbc21" d="M 645 135.39154285714284 C 650.328 135.39154285714284 650.328 143.39154285714284 645 143.39154285714284 C 639.672 143.39154285714284 639.672 135.39154285714284 645 135.39154285714284 Z"></path><path fill="#8bbc21" d="M 613 144.8336 C 618.328 144.8336 618.328 152.8336 613 152.8336 C 607.672 152.8336 607.672 144.8336 613 144.8336 Z"></path><path fill="#8bbc21" d="M 582.0006715014773 164.8950857142857 C 587.3286715014773 164.8950857142857 587.3286715014773 172.8950857142857 582.0006715014773 172.8950857142857 C 576.6726715014773 172.8950857142857 576.6726715014773 164.8950857142857 582.0006715014773 164.8950857142857 Z" stroke-width="1"></path><path fill="#8bbc21" d="M 549 176.55337142857144 C 554.328 176.55337142857144 554.328 184.55337142857144 549 184.55337142857144 C 543.672 184.55337142857144 543.672 176.55337142857144 549 176.55337142857144 Z"></path><path fill="#8bbc21" d="M 518.1825141015311 195.52982857142857 C 523.510514101531 195.52982857142857 523.510514101531 203.52982857142857 518.1825141015311 203.52982857142857 C 512.8545141015311 203.52982857142857 512.8545141015311 195.52982857142857 518.1825141015311 195.52982857142857 Z" stroke-width="1"></path><path fill="#8bbc21" d="M 485.75033575073866 192.5286857142857 C 491.07833575073863 192.5286857142857 491.07833575073863 200.5286857142857 485.75033575073866 200.5286857142857 C 480.4223357507387 200.5286857142857 480.4223357507387 192.5286857142857 485.75033575073866 192.5286857142857 Z" stroke-width="1"></path><path fill="#8bbc21" d="M 453.3181573999463 185.81074285714283 C 458.6461573999463 185.81074285714283 458.6461573999463 193.81074285714283 453.3181573999463 193.81074285714283 C 447.9901573999463 193.81074285714283 447.9901573999463 185.81074285714283 453.3181573999463 185.81074285714283 Z" stroke-width="1"></path><path fill="#8bbc21" d="M 421.9321783507924 186.80342857142858 C 427.2601783507924 186.80342857142858 427.2601783507924 194.80342857142858 421.9321783507924 194.80342857142858 C 416.60417835079244 194.80342857142858 416.60417835079244 186.80342857142858 421.9321783507924 186.80342857142858 Z" stroke-width="1"></path><path fill="#8bbc21" d="M 389.5 202.34011428571426 C 394.828 202.34011428571426 394.828 210.34011428571426 389.5 210.34011428571426 C 384.172 210.34011428571426 384.172 202.34011428571426 389.5 202.34011428571426 Z" stroke-width="1"></path><path fill="#8bbc21" d="M 358.1140209508461 200.5856 C 363.4420209508461 200.5856 363.4420209508461 208.5856 358.1140209508461 208.5856 C 352.78602095084614 208.5856 352.78602095084614 200.5856 358.1140209508461 200.5856 Z" stroke-width="1"></path><path fill="#8bbc21" d="M 325.68184260005376 198.66948571428568 C 331.00984260005373 198.66948571428568 331.00984260005373 206.66948571428568 325.68184260005376 206.66948571428568 C 320.3538426000538 206.66948571428568 320.3538426000538 198.66948571428568 325.68184260005376 198.66948571428568 Z" stroke-width="1"></path><path fill="#8bbc21" d="M 296.38826215417674 209.35817142857138 C 301.7162621541767 209.35817142857138 301.7162621541767 217.35817142857138 296.38826215417674 217.35817142857138 C 291.06026215417677 217.35817142857138 291.06026215417677 209.35817142857138 296.38826215417674 209.35817142857138 Z" stroke-width="1"></path><path fill="#8bbc21" d="M 263.9560838033844 211.55131428571428 C 269.28408380338436 211.55131428571428 269.28408380338436 219.55131428571428 263.9560838033844 219.55131428571428 C 258.6280838033844 219.55131428571428 258.6280838033844 211.55131428571428 263.9560838033844 211.55131428571428 Z" stroke-width="1"></path><path fill="#8bbc21" d="M 231 220.9241142857143 C 236.328 220.9241142857143 236.328 228.9241142857143 231 228.9241142857143 C 225.672 228.9241142857143 225.672 220.9241142857143 231 220.9241142857143 Z"></path><path fill="#8bbc21" d="M 200 230.92022857142857 C 205.328 230.92022857142857 205.328 238.92022857142857 200 238.92022857142857 C 194.672 238.92022857142857 194.672 230.92022857142857 200 230.92022857142857 Z"></path><path fill="#8bbc21" d="M 167.70574805264573 235.26034285714286 C 173.03374805264573 235.26034285714286 173.03374805264573 243.26034285714286 167.70574805264573 243.26034285714286 C 162.37774805264573 243.26034285714286 162.37774805264573 235.26034285714286 167.70574805264573 235.26034285714286 Z" stroke-width="1"></path><path fill="#8bbc21" d="M 136.3197690034918 241.0086857142857 C 141.64776900349182 241.0086857142857 141.64776900349182 249.0086857142857 136.3197690034918 249.0086857142857 C 130.9917690034918 249.0086857142857 130.9917690034918 241.0086857142857 136.3197690034918 241.0086857142857 Z" stroke-width="1"></path><path fill="#8bbc21" d="M 103.88759065269944 253.1517714285714 C 109.21559065269945 253.1517714285714 109.21559065269945 261.1517714285714 103.88759065269944 261.1517714285714 C 98.55959065269944 261.1517714285714 98.55959065269944 253.1517714285714 103.88759065269944 253.1517714285714 Z" stroke-width="1"></path><path fill="#8bbc21" d="M 71.45541230190707 259.54651428571424 C 76.78341230190708 259.54651428571424 76.78341230190708 267.54651428571424 71.45541230190707 267.54651428571424 C 66.12741230190707 267.54651428571424 66.12741230190707 259.54651428571424 71.45541230190707 259.54651428571424 Z" stroke-width="1"></path><path fill="#8bbc21" d="M 40.06943325275316 268.1113142857143 C 45.39743325275316 268.1113142857143 45.39743325275316 276.1113142857143 40.06943325275316 276.1113142857143 C 34.741433252753154 276.1113142857143 34.741433252753154 268.1113142857143 40.06943325275316 268.1113142857143 Z" stroke-width="1"></path><path fill="#8bbc21" d="M 7 284.57142857142856 C 12.328 284.57142857142856 12.328 292.57142857142856 7 292.57142857142856 C 1.672 292.57142857142856 1.672 284.57142857142856 7 284.57142857142856 Z"></path></g><g class="highcharts-series" visibility="visible" zIndex="0.1" transform="translate(70,10) scale(1 1)" clip-path="url(#highcharts-9)"><path fill="none" d="M 7.637254901960785 288.57142857142856 L 40.06943325275316 286.53988571428573 L 71.45541230190707 280.30674285714286 L 103.88759065269944 276.4976 L 136.3197690034918 279.45257142857145 L 167.70574805264573 279.2909714285714 L 200.1379264034381 280.5837714285714 L 231.523905452592 277.9058285714286 L 263.9560838033844 276.82079999999996 L 296.38826215417674 268.3483428571428 L 325.68184260005376 256.55154285714286 L 358.1140209508461 253.96594285714286 L 389.5 246.20914285714287 L 421.9321783507924 242.60777142857143 L 453.3181573999463 232.98102857142857 L 485.75033575073866 233.32731428571427 L 518.1825141015311 229.88754285714285 L 549.568493150685 224.1392 L 582.0006715014773 227.44045714285713 L 613.3866505506312 223.58514285714284 L 645.8188289014237 219.8452571428571 L 678.251007252216 219.6144 L 707.544587698093 225.38582857142856 L 739.9767660488853 223.1003428571428 L 771.3627450980392 220.37622857142858" stroke="#910000" stroke-width="2" zIndex="1" stroke-linejoin="round" stroke-linecap="round"></path><path fill="none" d="M -2.3627450980392153 288.57142857142856 L 7.637254901960785 288.57142857142856 L 40.06943325275316 286.53988571428573 L 71.45541230190707 280.30674285714286 L 103.88759065269944 276.4976 L 136.3197690034918 279.45257142857145 L 167.70574805264573 279.2909714285714 L 200.1379264034381 280.5837714285714 L 231.523905452592 277.9058285714286 L 263.9560838033844 276.82079999999996 L 296.38826215417674 268.3483428571428 L 325.68184260005376 256.55154285714286 L 358.1140209508461 253.96594285714286 L 389.5 246.20914285714287 L 421.9321783507924 242.60777142857143 L 453.3181573999463 232.98102857142857 L 485.75033575073866 233.32731428571427 L 518.1825141015311 229.88754285714285 L 549.568493150685 224.1392 L 582.0006715014773 227.44045714285713 L 613.3866505506312 223.58514285714284 L 645.8188289014237 219.8452571428571 L 678.251007252216 219.6144 L 707.544587698093 225.38582857142856 L 739.9767660488853 223.1003428571428 L 771.3627450980392 220.37622857142858 L 781.3627450980392 220.37622857142858" stroke-linejoin="round" visibility="visible" stroke="rgba(192,192,192,0.0001)" stroke-width="22" zIndex="2" class=" highcharts-tracker" style=""></path></g><g class="highcharts-markers highcharts-tracker" visibility="visible" zIndex="0.1" transform="translate(70,10) scale(1 1)" clip-path="url(#highcharts-10)" style=""><path fill="#910000" d="M 771 216.37622857142858 L 775 224.37622857142858 767 224.37622857142858 Z"></path><path fill="#910000" d="M 739 219.1003428571428 L 743 227.1003428571428 735 227.1003428571428 Z"></path><path fill="#910000" d="M 707 221.38582857142856 L 711 229.38582857142856 703 229.38582857142856 Z"></path><path fill="#910000" d="M 678 215.6144 L 682 223.6144 674 223.6144 Z"></path><path fill="#910000" d="M 645 215.8452571428571 L 649 223.8452571428571 641 223.8452571428571 Z"></path><path fill="#910000" d="M 613 219.58514285714284 L 617 227.58514285714284 609 227.58514285714284 Z"></path><path fill="#910000" d="M 582 223.44045714285713 L 586 231.44045714285713 578 231.44045714285713 Z"></path><path fill="#910000" d="M 549.568493150685 220.1392 L 553.568493150685 228.1392 545.568493150685 228.1392 Z" stroke-width="1"></path><path fill="#910000" d="M 518.1825141015311 225.88754285714285 L 522.1825141015311 233.88754285714285 514.1825141015311 233.88754285714285 Z" stroke-width="1"></path><path fill="#910000" d="M 485 229.32731428571427 L 489 237.32731428571427 481 237.32731428571427 Z"></path><path fill="#910000" d="M 453.3181573999463 228.98102857142857 L 457.3181573999463 236.98102857142857 449.3181573999463 236.98102857142857 Z" stroke-width="1"></path><path fill="#910000" d="M 421 238.60777142857143 L 425 246.60777142857143 417 246.60777142857143 Z"></path><path fill="#910000" d="M 389 242.20914285714287 L 393 250.20914285714287 385 250.20914285714287 Z"></path><path fill="#910000" d="M 358 249.96594285714286 L 362 257.96594285714286 354 257.96594285714286 Z"></path><path fill="#910000" d="M 325 252.55154285714286 L 329 260.55154285714286 321 260.55154285714286 Z"></path><path fill="#910000" d="M 296 264.3483428571428 L 300 272.3483428571428 292 272.3483428571428 Z"></path><path fill="#910000" d="M 263 272.82079999999996 L 267 280.82079999999996 259 280.82079999999996 Z"></path><path fill="#910000" d="M 231 273.9058285714286 L 235 281.9058285714286 227 281.9058285714286 Z"></path><path fill="#910000" d="M 200 276.5837714285714 L 204 284.5837714285714 196 284.5837714285714 Z"></path><path fill="#910000" d="M 167 275.2909714285714 L 171 283.2909714285714 163 283.2909714285714 Z"></path><path fill="#910000" d="M 136 275.45257142857145 L 140 283.45257142857145 132 283.45257142857145 Z"></path><path fill="#910000" d="M 103 272.4976 L 107 280.4976 99 280.4976 Z"></path><path fill="#910000" d="M 71 276.30674285714286 L 75 284.30674285714286 67 284.30674285714286 Z"></path><path fill="#910000" d="M 40 282.53988571428573 L 44 290.53988571428573 36 290.53988571428573 Z"></path><path fill="#910000" d="M 7 284.57142857142856 L 11 292.57142857142856 3 292.57142857142856 Z"></path></g><g class="highcharts-series" visibility="visible" zIndex="0.1" transform="translate(70,10) scale(1 1)" clip-path="url(#highcharts-9)"><path fill="none" d="M 7.637254901960785 288.57142857142856 L 40.06943325275316 285.13165714285714 L 71.45541230190707 275.45874285714285 L 103.88759065269944 271.67268571428576 L 136.3197690034918 265.2086857142857 L 167.70574805264573 261.9536 L 200.1379264034381 264.2390857142857 L 231.523905452592 267.84045714285713 L 263.9560838033844 266.7785142857143 L 296.38826215417674 261.2148571428571 L 325.68184260005376 258.6292571428571 L 358.1140209508461 258.0290285714285 L 389.5 260.61462857142857 L 421.9321783507924 258.76777142857145 L 453.3181573999463 250.61851428571427 L 485.75033575073866 247.06331428571426 L 518.1825141015311 240.69165714285714 L 549.568493150685 236.97485714285713 L 582.0006715014773 232.77325714285712 L 613.3866505506312 229.21805714285713 L 645.8188289014237 231.1110857142857 L 678.251007252216 228.4100571428571 L 707.544587698093 231.5728 L 739.9767660488853 228.13302857142855 L 771.3627450980392 222.75405714285716" stroke="#00aa00" stroke-width="2" zIndex="1" stroke-linejoin="round" stroke-linecap="round"></path><path fill="none" d="M -2.3627450980392153 288.57142857142856 L 7.637254901960785 288.57142857142856 L 40.06943325275316 285.13165714285714 L 71.45541230190707 275.45874285714285 L 103.88759065269944 271.67268571428576 L 136.3197690034918 265.2086857142857 L 167.70574805264573 261.9536 L 200.1379264034381 264.2390857142857 L 231.523905452592 267.84045714285713 L 263.9560838033844 266.7785142857143 L 296.38826215417674 261.2148571428571 L 325.68184260005376 258.6292571428571 L 358.1140209508461 258.0290285714285 L 389.5 260.61462857142857 L 421.9321783507924 258.76777142857145 L 453.3181573999463 250.61851428571427 L 485.75033575073866 247.06331428571426 L 518.1825141015311 240.69165714285714 L 549.568493150685 236.97485714285713 L 582.0006715014773 232.77325714285712 L 613.3866505506312 229.21805714285713 L 645.8188289014237 231.1110857142857 L 678.251007252216 228.4100571428571 L 707.544587698093 231.5728 L 739.9767660488853 228.13302857142855 L 771.3627450980392 222.75405714285716 L 781.3627450980392 222.75405714285716" stroke-linejoin="round" visibility="visible" stroke="rgba(192,192,192,0.0001)" stroke-width="22" zIndex="2" class=" highcharts-tracker" style=""></path></g><g class="highcharts-markers highcharts-tracker" visibility="visible" zIndex="0.1" transform="translate(70,10) scale(1 1)" clip-path="url(#highcharts-10)" style=""><path fill="#00aa00" d="M 767 218.75405714285716 L 775 218.75405714285716 771 226.75405714285716 Z"></path><path fill="#00aa00" d="M 735 224.13302857142855 L 743 224.13302857142855 739 232.13302857142855 Z"></path><path fill="#00aa00" d="M 703 227.5728 L 711 227.5728 707 235.5728 Z"></path><path fill="#00aa00" d="M 674 224.4100571428571 L 682 224.4100571428571 678 232.4100571428571 Z"></path><path fill="#00aa00" d="M 641 227.1110857142857 L 649 227.1110857142857 645 235.1110857142857 Z"></path><path fill="#00aa00" d="M 609 225.21805714285713 L 617 225.21805714285713 613 233.21805714285713 Z"></path><path fill="#00aa00" d="M 578 228.77325714285712 L 586 228.77325714285712 582 236.77325714285712 Z"></path><path fill="#00aa00" d="M 545.568493150685 232.97485714285713 L 553.568493150685 232.97485714285713 549.568493150685 240.97485714285713 Z" stroke-width="1"></path><path fill="#00aa00" d="M 514.1825141015311 236.69165714285714 L 522.1825141015311 236.69165714285714 518.1825141015311 244.69165714285714 Z" stroke-width="1"></path><path fill="#00aa00" d="M 481.75033575073866 243.06331428571426 L 489.75033575073866 243.06331428571426 485.75033575073866 251.06331428571426 Z" stroke-width="1"></path><path fill="#00aa00" d="M 449 246.61851428571427 L 457 246.61851428571427 453 254.61851428571427 Z"></path><path fill="#00aa00" d="M 417 254.76777142857145 L 425 254.76777142857145 421 262.76777142857145 Z"></path><path fill="#00aa00" d="M 385 256.61462857142857 L 393 256.61462857142857 389 264.61462857142857 Z"></path><path fill="#00aa00" d="M 354 254.0290285714285 L 362 254.0290285714285 358 262.0290285714285 Z"></path><path fill="#00aa00" d="M 321 254.6292571428571 L 329 254.6292571428571 325 262.6292571428571 Z"></path><path fill="#00aa00" d="M 292 257.2148571428571 L 300 257.2148571428571 296 265.2148571428571 Z"></path><path fill="#00aa00" d="M 259 262.7785142857143 L 267 262.7785142857143 263 270.7785142857143 Z"></path><path fill="#00aa00" d="M 227 263.84045714285713 L 235 263.84045714285713 231 271.84045714285713 Z"></path><path fill="#00aa00" d="M 196 260.2390857142857 L 204 260.2390857142857 200 268.2390857142857 Z"></path><path fill="#00aa00" d="M 163 257.9536 L 171 257.9536 167 265.9536 Z"></path><path fill="#00aa00" d="M 132 261.2086857142857 L 140 261.2086857142857 136 269.2086857142857 Z"></path><path fill="#00aa00" d="M 99 267.67268571428576 L 107 267.67268571428576 103 275.67268571428576 Z"></path><path fill="#00aa00" d="M 67 271.45874285714285 L 75 271.45874285714285 71 279.45874285714285 Z"></path><path fill="#00aa00" d="M 36 281.13165714285714 L 44 281.13165714285714 40 289.13165714285714 Z"></path><path fill="#00aa00" d="M 3 284.57142857142856 L 11 284.57142857142856 7 292.57142857142856 Z"></path></g><g class="highcharts-series" visibility="visible" zIndex="0.1" transform="translate(70,10) scale(1 1)" clip-path="url(#highcharts-9)"><path fill="none" d="M 7.637254901960785 288.57142857142856 L 40.06943325275316 279.89119999999997 L 71.45541230190707 275.7126857142857 L 103.88759065269944 275.34331428571426 L 136.3197690034918 281.2301714285714 L 167.70574805264573 285.50102857142855 L 200.1379264034381 289.2409142857143 L 231.523905452592 296.32822857142855 L 263.9560838033844 294.06582857142854 L 296.38826215417674 298.10582857142856 L 325.68184260005376 298.75222857142853 L 358.1140209508461 303.53097142857143 L 389.5 307.40937142857143 L 421.9321783507924 298.0365714285714 L 453.3181573999463 289.3101714285714 L 485.75033575073866 289.86422857142855 L 518.1825141015311 285.24708571428573 L 549.568493150685 265.8089142857143 L 582.0006715014773 251.42651428571426 L 613.3866505506312 240.02217142857143 L 645.8188289014237 235.82057142857144 L 678.251007252216 220.7917714285714 L 707.544587698093 235.35885714285715 L 739.9767660488853 222.7078857142857 L 771.3627450980392 225.50125714285716" stroke="#a6c96a" stroke-width="2" zIndex="1" stroke-linejoin="round" stroke-linecap="round"></path><path fill="none" d="M -2.3627450980392153 288.57142857142856 L 7.637254901960785 288.57142857142856 L 40.06943325275316 279.89119999999997 L 71.45541230190707 275.7126857142857 L 103.88759065269944 275.34331428571426 L 136.3197690034918 281.2301714285714 L 167.70574805264573 285.50102857142855 L 200.1379264034381 289.2409142857143 L 231.523905452592 296.32822857142855 L 263.9560838033844 294.06582857142854 L 296.38826215417674 298.10582857142856 L 325.68184260005376 298.75222857142853 L 358.1140209508461 303.53097142857143 L 389.5 307.40937142857143 L 421.9321783507924 298.0365714285714 L 453.3181573999463 289.3101714285714 L 485.75033575073866 289.86422857142855 L 518.1825141015311 285.24708571428573 L 549.568493150685 265.8089142857143 L 582.0006715014773 251.42651428571426 L 613.3866505506312 240.02217142857143 L 645.8188289014237 235.82057142857144 L 678.251007252216 220.7917714285714 L 707.544587698093 235.35885714285715 L 739.9767660488853 222.7078857142857 L 771.3627450980392 225.50125714285716 L 781.3627450980392 225.50125714285716" stroke-linejoin="round" visibility="visible" stroke="rgba(192,192,192,0.0001)" stroke-width="22" zIndex="2" class=" highcharts-tracker" style=""></path></g><g class="highcharts-markers highcharts-tracker" visibility="visible" zIndex="0.1" transform="translate(70,10) scale(1 1)" clip-path="url(#highcharts-10)" style=""><path fill="#a6c96a" d="M 771 221.50125714285716 C 776.328 221.50125714285716 776.328 229.50125714285716 771 229.50125714285716 C 765.672 229.50125714285716 765.672 221.50125714285716 771 221.50125714285716 Z"></path><path fill="#a6c96a" d="M 739 218.7078857142857 C 744.328 218.7078857142857 744.328 226.7078857142857 739 226.7078857142857 C 733.672 226.7078857142857 733.672 218.7078857142857 739 218.7078857142857 Z"></path><path fill="#a6c96a" d="M 707 231.35885714285715 C 712.328 231.35885714285715 712.328 239.35885714285715 707 239.35885714285715 C 701.672 239.35885714285715 701.672 231.35885714285715 707 231.35885714285715 Z"></path><path fill="#a6c96a" d="M 678 216.7917714285714 C 683.328 216.7917714285714 683.328 224.7917714285714 678 224.7917714285714 C 672.672 224.7917714285714 672.672 216.7917714285714 678 216.7917714285714 Z"></path><path fill="#a6c96a" d="M 645 231.82057142857144 C 650.328 231.82057142857144 650.328 239.82057142857144 645 239.82057142857144 C 639.672 239.82057142857144 639.672 231.82057142857144 645 231.82057142857144 Z"></path><path fill="#a6c96a" d="M 613 236.02217142857143 C 618.328 236.02217142857143 618.328 244.02217142857143 613 244.02217142857143 C 607.672 244.02217142857143 607.672 236.02217142857143 613 236.02217142857143 Z"></path><path fill="#a6c96a" d="M 582 247.42651428571426 C 587.328 247.42651428571426 587.328 255.42651428571426 582 255.42651428571426 C 576.672 255.42651428571426 576.672 247.42651428571426 582 247.42651428571426 Z"></path><path fill="#a6c96a" d="M 549 261.8089142857143 C 554.328 261.8089142857143 554.328 269.8089142857143 549 269.8089142857143 C 543.672 269.8089142857143 543.672 261.8089142857143 549 261.8089142857143 Z"></path><path fill="#a6c96a" d="M 518 281.24708571428573 C 523.328 281.24708571428573 523.328 289.24708571428573 518 289.24708571428573 C 512.672 289.24708571428573 512.672 281.24708571428573 518 281.24708571428573 Z"></path><path fill="#a6c96a" d="M 485 285.86422857142855 C 490.328 285.86422857142855 490.328 293.86422857142855 485 293.86422857142855 C 479.672 293.86422857142855 479.672 285.86422857142855 485 285.86422857142855 Z"></path><path fill="#a6c96a" d="M 453 285.3101714285714 C 458.328 285.3101714285714 458.328 293.3101714285714 453 293.3101714285714 C 447.672 293.3101714285714 447.672 285.3101714285714 453 285.3101714285714 Z"></path><path fill="#a6c96a" d="M 421 294.0365714285714 C 426.328 294.0365714285714 426.328 302.0365714285714 421 302.0365714285714 C 415.672 302.0365714285714 415.672 294.0365714285714 421 294.0365714285714 Z"></path><path fill="#a6c96a" d="M 389 303.40937142857143 C 394.328 303.40937142857143 394.328 311.40937142857143 389 311.40937142857143 C 383.672 311.40937142857143 383.672 303.40937142857143 389 303.40937142857143 Z"></path><path fill="#a6c96a" d="M 358 299.53097142857143 C 363.328 299.53097142857143 363.328 307.53097142857143 358 307.53097142857143 C 352.672 307.53097142857143 352.672 299.53097142857143 358 299.53097142857143 Z"></path><path fill="#a6c96a" d="M 325 294.75222857142853 C 330.328 294.75222857142853 330.328 302.75222857142853 325 302.75222857142853 C 319.672 302.75222857142853 319.672 294.75222857142853 325 294.75222857142853 Z"></path><path fill="#a6c96a" d="M 296 294.10582857142856 C 301.328 294.10582857142856 301.328 302.10582857142856 296 302.10582857142856 C 290.672 302.10582857142856 290.672 294.10582857142856 296 294.10582857142856 Z"></path><path fill="#a6c96a" d="M 263 290.06582857142854 C 268.328 290.06582857142854 268.328 298.06582857142854 263 298.06582857142854 C 257.672 298.06582857142854 257.672 290.06582857142854 263 290.06582857142854 Z"></path><path fill="#a6c96a" d="M 231 292.32822857142855 C 236.328 292.32822857142855 236.328 300.32822857142855 231 300.32822857142855 C 225.672 300.32822857142855 225.672 292.32822857142855 231 292.32822857142855 Z"></path><path fill="#a6c96a" d="M 200 285.2409142857143 C 205.328 285.2409142857143 205.328 293.2409142857143 200 293.2409142857143 C 194.672 293.2409142857143 194.672 285.2409142857143 200 285.2409142857143 Z"></path><path fill="#a6c96a" d="M 167 281.50102857142855 C 172.328 281.50102857142855 172.328 289.50102857142855 167 289.50102857142855 C 161.672 289.50102857142855 161.672 281.50102857142855 167 281.50102857142855 Z"></path><path fill="#a6c96a" d="M 136 277.2301714285714 C 141.328 277.2301714285714 141.328 285.2301714285714 136 285.2301714285714 C 130.672 285.2301714285714 130.672 277.2301714285714 136 277.2301714285714 Z"></path><path fill="#a6c96a" d="M 103 271.34331428571426 C 108.328 271.34331428571426 108.328 279.34331428571426 103 279.34331428571426 C 97.672 279.34331428571426 97.672 271.34331428571426 103 271.34331428571426 Z"></path><path fill="#a6c96a" d="M 71 271.7126857142857 C 76.328 271.7126857142857 76.328 279.7126857142857 71 279.7126857142857 C 65.672 279.7126857142857 65.672 271.7126857142857 71 271.7126857142857 Z"></path><path fill="#a6c96a" d="M 40 275.89119999999997 C 45.328 275.89119999999997 45.328 283.89119999999997 40 283.89119999999997 C 34.672 283.89119999999997 34.672 275.89119999999997 40 275.89119999999997 Z"></path><path fill="#a6c96a" d="M 7 284.57142857142856 C 12.328 284.57142857142856 12.328 292.57142857142856 7 292.57142857142856 C 1.672 292.57142857142856 1.672 284.57142857142856 7 284.57142857142856 Z"></path></g><g class="highcharts-series" visibility="visible" zIndex="0.1" transform="translate(70,10) scale(1 1)" clip-path="url(#highcharts-9)"><path fill="none" d="M 7.637254901960785 288.57142857142856 L 40.06943325275316 286.30902857142854 L 71.45541230190707 285.5472 L 103.88759065269944 286.21668571428575 L 136.3197690034918 284.7161142857143 L 167.70574805264573 286.6322285714285 L 200.1379264034381 286.8861714285714 L 231.523905452592 287.55565714285717 L 263.9560838033844 286.6784 L 296.38826215417674 282.1766857142857 L 325.68184260005376 277.60571428571427 L 358.1140209508461 277.0285714285714 L 389.5 275.9666285714286 L 421.9321783507924 274.0274285714286 L 453.3181573999463 267.6326857142857 L 485.75033575073866 266.15520000000004 L 518.1825141015311 259.71428571428567 L 549.568493150685 255.69737142857144 L 582.0006715014773 253.04251428571428 L 613.3866505506312 247.01714285714286 L 645.8188289014237 242.14605714285713 L 678.251007252216 237.06719999999999 L 707.544587698093 234.73554285714286 L 739.9767660488853 232.0345142857143 L 771.3627450980392 229.472" stroke="#0d233a" stroke-width="2" zIndex="1" stroke-linejoin="round" stroke-linecap="round"></path><path fill="none" d="M -2.3627450980392153 288.57142857142856 L 7.637254901960785 288.57142857142856 L 40.06943325275316 286.30902857142854 L 71.45541230190707 285.5472 L 103.88759065269944 286.21668571428575 L 136.3197690034918 284.7161142857143 L 167.70574805264573 286.6322285714285 L 200.1379264034381 286.8861714285714 L 231.523905452592 287.55565714285717 L 263.9560838033844 286.6784 L 296.38826215417674 282.1766857142857 L 325.68184260005376 277.60571428571427 L 358.1140209508461 277.0285714285714 L 389.5 275.9666285714286 L 421.9321783507924 274.0274285714286 L 453.3181573999463 267.6326857142857 L 485.75033575073866 266.15520000000004 L 518.1825141015311 259.71428571428567 L 549.568493150685 255.69737142857144 L 582.0006715014773 253.04251428571428 L 613.3866505506312 247.01714285714286 L 645.8188289014237 242.14605714285713 L 678.251007252216 237.06719999999999 L 707.544587698093 234.73554285714286 L 739.9767660488853 232.0345142857143 L 771.3627450980392 229.472 L 781.3627450980392 229.472" stroke-linejoin="round" visibility="visible" stroke="rgba(192,192,192,0.0001)" stroke-width="22" zIndex="2" class=" highcharts-tracker" style=""></path></g><g class="highcharts-markers highcharts-tracker" visibility="visible" zIndex="0.1" transform="translate(70,10) scale(1 1)" clip-path="url(#highcharts-10)" style=""><path fill="#0d233a" d="M 767 225.472 L 775 225.472 775 233.472 767 233.472 Z"></path><path fill="#0d233a" d="M 735 228.0345142857143 L 743 228.0345142857143 743 236.0345142857143 735 236.0345142857143 Z"></path><path fill="#0d233a" d="M 703 230.73554285714286 L 711 230.73554285714286 711 238.73554285714286 703 238.73554285714286 Z"></path><path fill="#0d233a" d="M 674 233.06719999999999 L 682 233.06719999999999 682 241.06719999999999 674 241.06719999999999 Z"></path><path fill="#0d233a" d="M 641 238.14605714285713 L 649 238.14605714285713 649 246.14605714285713 641 246.14605714285713 Z"></path><path fill="#0d233a" d="M 609 243.01714285714286 L 617 243.01714285714286 617 251.01714285714286 609 251.01714285714286 Z"></path><path fill="#0d233a" d="M 578 249.04251428571428 L 586 249.04251428571428 586 257.0425142857143 578 257.0425142857143 Z"></path><path fill="#0d233a" d="M 545 251.69737142857144 L 553 251.69737142857144 553 259.69737142857144 545 259.69737142857144 Z"></path><path fill="#0d233a" d="M 514.1825141015311 255.71428571428567 L 522.1825141015311 255.71428571428567 522.1825141015311 263.71428571428567 514.1825141015311 263.71428571428567 Z" stroke-width="1"></path><path fill="#0d233a" d="M 481 262.15520000000004 L 489 262.15520000000004 489 270.15520000000004 481 270.15520000000004 Z"></path><path fill="#0d233a" d="M 449 263.6326857142857 L 457 263.6326857142857 457 271.6326857142857 449 271.6326857142857 Z"></path><path fill="#0d233a" d="M 417 270.0274285714286 L 425 270.0274285714286 425 278.0274285714286 417 278.0274285714286 Z"></path><path fill="#0d233a" d="M 385 271.9666285714286 L 393 271.9666285714286 393 279.9666285714286 385 279.9666285714286 Z"></path><path fill="#0d233a" d="M 354 273.0285714285714 L 362 273.0285714285714 362 281.0285714285714 354 281.0285714285714 Z"></path><path fill="#0d233a" d="M 321 273.60571428571427 L 329 273.60571428571427 329 281.60571428571427 321 281.60571428571427 Z"></path><path fill="#0d233a" d="M 292 278.1766857142857 L 300 278.1766857142857 300 286.1766857142857 292 286.1766857142857 Z"></path><path fill="#0d233a" d="M 259 282.6784 L 267 282.6784 267 290.6784 259 290.6784 Z"></path><path fill="#0d233a" d="M 227 283.55565714285717 L 235 283.55565714285717 235 291.55565714285717 227 291.55565714285717 Z"></path><path fill="#0d233a" d="M 196 282.8861714285714 L 204 282.8861714285714 204 290.8861714285714 196 290.8861714285714 Z"></path><path fill="#0d233a" d="M 163 282.6322285714285 L 171 282.6322285714285 171 290.6322285714285 163 290.6322285714285 Z"></path><path fill="#0d233a" d="M 132 280.7161142857143 L 140 280.7161142857143 140 288.7161142857143 132 288.7161142857143 Z"></path><path fill="#0d233a" d="M 99 282.21668571428575 L 107 282.21668571428575 107 290.21668571428575 99 290.21668571428575 Z"></path><path fill="#0d233a" d="M 67 281.5472 L 75 281.5472 75 289.5472 67 289.5472 Z"></path><path fill="#0d233a" d="M 36 282.30902857142854 L 44 282.30902857142854 44 290.30902857142854 36 290.30902857142854 Z"></path><path fill="#0d233a" d="M 3 284.57142857142856 L 11 284.57142857142856 11 292.57142857142856 3 292.57142857142856 Z"></path></g><g class="highcharts-series" visibility="visible" zIndex="0.1" transform="translate(70,10) scale(1 1)" clip-path="url(#highcharts-9)"><path fill="none" d="M 7.637254901960785 288.57142857142856 L 40.06943325275316 281.43794285714284 L 71.45541230190707 278.9908571428571 L 103.88759065269944 277.7673142857143 L 136.3197690034918 285.24708571428573 L 167.70574805264573 291.82651428571427 L 200.1379264034381 295.72799999999995 L 231.523905452592 299.83725714285714 L 263.9560838033844 297.9904 L 296.38826215417674 303.3462857142857 L 325.68184260005376 300.6683428571428 L 358.1140209508461 312.6498285714286 L 389.5 316.50514285714286 L 421.9321783507924 309.9488 L 453.3181573999463 301.7072 L 485.75033575073866 306.7629714285714 L 518.1825141015311 294.66605714285714 L 549.568493150685 273.7965714285714 L 582.0006715014773 259.2987428571428 L 613.3866505506312 245.47039999999998 L 645.8188289014237 243.06948571428572 L 678.251007252216 228.47931428571428 L 707.544587698093 244.63931428571428 L 739.9767660488853 231.9190857142857 L 771.3627450980392 233.95062857142858" stroke="#492970" stroke-width="2" zIndex="1" stroke-linejoin="round" stroke-linecap="round"></path><path fill="none" d="M -2.3627450980392153 288.57142857142856 L 7.637254901960785 288.57142857142856 L 40.06943325275316 281.43794285714284 L 71.45541230190707 278.9908571428571 L 103.88759065269944 277.7673142857143 L 136.3197690034918 285.24708571428573 L 167.70574805264573 291.82651428571427 L 200.1379264034381 295.72799999999995 L 231.523905452592 299.83725714285714 L 263.9560838033844 297.9904 L 296.38826215417674 303.3462857142857 L 325.68184260005376 300.6683428571428 L 358.1140209508461 312.6498285714286 L 389.5 316.50514285714286 L 421.9321783507924 309.9488 L 453.3181573999463 301.7072 L 485.75033575073866 306.7629714285714 L 518.1825141015311 294.66605714285714 L 549.568493150685 273.7965714285714 L 582.0006715014773 259.2987428571428 L 613.3866505506312 245.47039999999998 L 645.8188289014237 243.06948571428572 L 678.251007252216 228.47931428571428 L 707.544587698093 244.63931428571428 L 739.9767660488853 231.9190857142857 L 771.3627450980392 233.95062857142858 L 781.3627450980392 233.95062857142858" stroke-linejoin="round" visibility="visible" stroke="rgba(192,192,192,0.0001)" stroke-width="22" zIndex="2" class=" highcharts-tracker" style=""></path></g><g class="highcharts-markers highcharts-tracker" visibility="visible" zIndex="0.1" transform="translate(70,10) scale(1 1)" clip-path="url(#highcharts-10)" style=""><path fill="#492970" d="M 771 229.95062857142858 L 775 233.95062857142858 771 237.95062857142858 767 233.95062857142858 Z"></path><path fill="#492970" d="M 739 227.9190857142857 L 743 231.9190857142857 739 235.9190857142857 735 231.9190857142857 Z"></path><path fill="#492970" d="M 707 240.63931428571428 L 711 244.63931428571428 707 248.63931428571428 703 244.63931428571428 Z"></path><path fill="#492970" d="M 678 224.47931428571428 L 682 228.47931428571428 678 232.47931428571428 674 228.47931428571428 Z"></path><path fill="#492970" d="M 645 239.06948571428572 L 649 243.06948571428572 645 247.06948571428572 641 243.06948571428572 Z"></path><path fill="#492970" d="M 613 241.47039999999998 L 617 245.47039999999998 613 249.47039999999998 609 245.47039999999998 Z"></path><path fill="#492970" d="M 582 255.29874285714283 L 586 259.2987428571428 582 263.2987428571428 578 259.2987428571428 Z"></path><path fill="#492970" d="M 549 269.7965714285714 L 553 273.7965714285714 549 277.7965714285714 545 273.7965714285714 Z"></path><path fill="#492970" d="M 518 290.66605714285714 L 522 294.66605714285714 518 298.66605714285714 514 294.66605714285714 Z"></path><path fill="#492970" d="M 485 302.7629714285714 L 489 306.7629714285714 485 310.7629714285714 481 306.7629714285714 Z"></path><path fill="#492970" d="M 453 297.7072 L 457 301.7072 453 305.7072 449 301.7072 Z"></path><path fill="#492970" d="M 421 305.9488 L 425 309.9488 421 313.9488 417 309.9488 Z"></path><path fill="#492970" d="M 389 312.50514285714286 L 393 316.50514285714286 389 320.50514285714286 385 316.50514285714286 Z"></path><path fill="#492970" d="M 358 308.6498285714286 L 362 312.6498285714286 358 316.6498285714286 354 312.6498285714286 Z"></path><path fill="#492970" d="M 325 296.6683428571428 L 329 300.6683428571428 325 304.6683428571428 321 300.6683428571428 Z"></path><path fill="#492970" d="M 296 299.3462857142857 L 300 303.3462857142857 296 307.3462857142857 292 303.3462857142857 Z"></path><path fill="#492970" d="M 263 293.9904 L 267 297.9904 263 301.9904 259 297.9904 Z"></path><path fill="#492970" d="M 231 295.83725714285714 L 235 299.83725714285714 231 303.83725714285714 227 299.83725714285714 Z"></path><path fill="#492970" d="M 200 291.72799999999995 L 204 295.72799999999995 200 299.72799999999995 196 295.72799999999995 Z"></path><path fill="#492970" d="M 167 287.82651428571427 L 171 291.82651428571427 167 295.82651428571427 163 291.82651428571427 Z"></path><path fill="#492970" d="M 136 281.24708571428573 L 140 285.24708571428573 136 289.24708571428573 132 285.24708571428573 Z"></path><path fill="#492970" d="M 103 273.7673142857143 L 107 277.7673142857143 103 281.7673142857143 99 277.7673142857143 Z"></path><path fill="#492970" d="M 71 274.9908571428571 L 75 278.9908571428571 71 282.9908571428571 67 278.9908571428571 Z"></path><path fill="#492970" d="M 40 277.43794285714284 L 44 281.43794285714284 40 285.43794285714284 36 281.43794285714284 Z"></path><path fill="#492970" d="M 7 284.57142857142856 L 11 288.57142857142856 7 292.57142857142856 3 288.57142857142856 Z"></path></g><g class="highcharts-series" visibility="visible" zIndex="0.1" transform="translate(70,10) scale(1 1)" clip-path="url(#highcharts-9)"><path fill="none" d="M 7.637254901960785 288.57142857142856 L 40.06943325275316 293.3270857142857 L 71.45541230190707 302.9538285714286 L 103.88759065269944 303.6694857142857 L 136.3197690034918 301.4070857142857 L 167.70574805264573 293.3501714285714 L 200.1379264034381 291.52639999999997 L 231.523905452592 282.0150857142857 L 263.9560838033844 288.20205714285714 L 296.38826215417674 317.544 L 325.68184260005376 312.00342857142857 L 358.1140209508461 327.97874285714283 L 389.5 328.1865142857143 L 421.9321783507924 324.4697142857143 L 453.3181573999463 313.22697142857146 L 485.75033575073866 325.73942857142856 L 518.1825141015311 301.82262857142854 L 549.568493150685 291.59565714285714 L 582.0006715014773 278.22902857142856 L 613.3866505506312 276.6822857142857 L 645.8188289014237 275.4125714285714 L 678.251007252216 261.9997714285714 L 707.544587698093 258.4676571428571 L 739.9767660488853 252.53462857142856 L 771.3627450980392 237.8752" stroke="#77a1e5" stroke-width="2" zIndex="1" stroke-linejoin="round" stroke-linecap="round"></path><path fill="none" d="M -2.3627450980392153 288.57142857142856 L 7.637254901960785 288.57142857142856 L 40.06943325275316 293.3270857142857 L 71.45541230190707 302.9538285714286 L 103.88759065269944 303.6694857142857 L 136.3197690034918 301.4070857142857 L 167.70574805264573 293.3501714285714 L 200.1379264034381 291.52639999999997 L 231.523905452592 282.0150857142857 L 263.9560838033844 288.20205714285714 L 296.38826215417674 317.544 L 325.68184260005376 312.00342857142857 L 358.1140209508461 327.97874285714283 L 389.5 328.1865142857143 L 421.9321783507924 324.4697142857143 L 453.3181573999463 313.22697142857146 L 485.75033575073866 325.73942857142856 L 518.1825141015311 301.82262857142854 L 549.568493150685 291.59565714285714 L 582.0006715014773 278.22902857142856 L 613.3866505506312 276.6822857142857 L 645.8188289014237 275.4125714285714 L 678.251007252216 261.9997714285714 L 707.544587698093 258.4676571428571 L 739.9767660488853 252.53462857142856 L 771.3627450980392 237.8752 L 781.3627450980392 237.8752" stroke-linejoin="round" visibility="visible" stroke="rgba(192,192,192,0.0001)" stroke-width="22" zIndex="2" class=" highcharts-tracker" style=""></path></g><g class="highcharts-markers highcharts-tracker" visibility="visible" zIndex="0.1" transform="translate(70,10) scale(1 1)" clip-path="url(#highcharts-10)" style=""><path fill="#77a1e5" d="M 767 233.8752 L 775 233.8752 775 241.8752 767 241.8752 Z"></path><path fill="#77a1e5" d="M 735 248.53462857142856 L 743 248.53462857142856 743 256.5346285714286 735 256.5346285714286 Z"></path><path fill="#77a1e5" d="M 703 254.4676571428571 L 711 254.4676571428571 711 262.4676571428571 703 262.4676571428571 Z"></path><path fill="#77a1e5" d="M 674 257.9997714285714 L 682 257.9997714285714 682 265.9997714285714 674 265.9997714285714 Z"></path><path fill="#77a1e5" d="M 641 271.4125714285714 L 649 271.4125714285714 649 279.4125714285714 641 279.4125714285714 Z"></path><path fill="#77a1e5" d="M 609 272.6822857142857 L 617 272.6822857142857 617 280.6822857142857 609 280.6822857142857 Z"></path><path fill="#77a1e5" d="M 578 274.22902857142856 L 586 274.22902857142856 586 282.22902857142856 578 282.22902857142856 Z"></path><path fill="#77a1e5" d="M 545 287.59565714285714 L 553 287.59565714285714 553 295.59565714285714 545 295.59565714285714 Z"></path><path fill="#77a1e5" d="M 514 297.82262857142854 L 522 297.82262857142854 522 305.82262857142854 514 305.82262857142854 Z"></path><path fill="#77a1e5" d="M 481 321.73942857142856 L 489 321.73942857142856 489 329.73942857142856 481 329.73942857142856 Z"></path><path fill="#77a1e5" d="M 449 309.22697142857146 L 457 309.22697142857146 457 317.22697142857146 449 317.22697142857146 Z"></path><path fill="#77a1e5" d="M 417 320.4697142857143 L 425 320.4697142857143 425 328.4697142857143 417 328.4697142857143 Z"></path><path fill="#77a1e5" d="M 385 324.1865142857143 L 393 324.1865142857143 393 332.1865142857143 385 332.1865142857143 Z"></path><path fill="#77a1e5" d="M 354 323.97874285714283 L 362 323.97874285714283 362 331.97874285714283 354 331.97874285714283 Z"></path><path fill="#77a1e5" d="M 321 308.00342857142857 L 329 308.00342857142857 329 316.00342857142857 321 316.00342857142857 Z"></path><path fill="#77a1e5" d="M 292 313.544 L 300 313.544 300 321.544 292 321.544 Z"></path><path fill="#77a1e5" d="M 259 284.20205714285714 L 267 284.20205714285714 267 292.20205714285714 259 292.20205714285714 Z"></path><path fill="#77a1e5" d="M 227 278.0150857142857 L 235 278.0150857142857 235 286.0150857142857 227 286.0150857142857 Z"></path><path fill="#77a1e5" d="M 196 287.52639999999997 L 204 287.52639999999997 204 295.52639999999997 196 295.52639999999997 Z"></path><path fill="#77a1e5" d="M 163 289.3501714285714 L 171 289.3501714285714 171 297.3501714285714 163 297.3501714285714 Z"></path><path fill="#77a1e5" d="M 132 297.4070857142857 L 140 297.4070857142857 140 305.4070857142857 132 305.4070857142857 Z"></path><path fill="#77a1e5" d="M 99 299.6694857142857 L 107 299.6694857142857 107 307.6694857142857 99 307.6694857142857 Z"></path><path fill="#77a1e5" d="M 67 298.9538285714286 L 75 298.9538285714286 75 306.9538285714286 67 306.9538285714286 Z"></path><path fill="#77a1e5" d="M 36 289.3270857142857 L 44 289.3270857142857 44 297.3270857142857 36 297.3270857142857 Z"></path><path fill="#77a1e5" d="M 3 284.57142857142856 L 11 284.57142857142856 11 292.57142857142856 3 292.57142857142856 Z"></path></g><g class="highcharts-series" visibility="visible" zIndex="0.1" transform="translate(70,10) scale(1 1)" clip-path="url(#highcharts-9)"><path fill="none" d="M 7.637254901960785 288.57142857142856 L 40.06943325275316 294.22742857142856 L 71.45541230190707 289.67954285714285 L 103.88759065269944 283.4464 L 136.3197690034918 276.08205714285714 L 167.70574805264573 294.6198857142857 L 200.1379264034381 297.80571428571426 L 231.523905452592 278.78308571428573 L 263.9560838033844 273.3810285714286 L 296.38826215417674 310.5952 L 325.68184260005376 291.8496 L 358.1140209508461 319.8756571428571 L 389.5 329.94102857142855 L 421.9321783507924 334.5350857142857 L 453.3181573999463 322.8768 L 485.75033575073866 343.79245714285713 L 518.1825141015311 311.1261714285714 L 549.568493150685 298.5675428571428 L 582.0006715014773 283.05394285714283 L 613.3866505506312 279.52182857142856 L 645.8188289014237 282.22285714285715 L 678.251007252216 277.00548571428567 L 707.544587698093 280.39908571428566 L 739.9767660488853 277.9981714285714 L 771.3627450980392 247.38651428571427" stroke="#1aadce" stroke-width="2" zIndex="1" stroke-linejoin="round" stroke-linecap="round"></path><path fill="none" d="M -2.3627450980392153 288.57142857142856 L 7.637254901960785 288.57142857142856 L 40.06943325275316 294.22742857142856 L 71.45541230190707 289.67954285714285 L 103.88759065269944 283.4464 L 136.3197690034918 276.08205714285714 L 167.70574805264573 294.6198857142857 L 200.1379264034381 297.80571428571426 L 231.523905452592 278.78308571428573 L 263.9560838033844 273.3810285714286 L 296.38826215417674 310.5952 L 325.68184260005376 291.8496 L 358.1140209508461 319.8756571428571 L 389.5 329.94102857142855 L 421.9321783507924 334.5350857142857 L 453.3181573999463 322.8768 L 485.75033575073866 343.79245714285713 L 518.1825141015311 311.1261714285714 L 549.568493150685 298.5675428571428 L 582.0006715014773 283.05394285714283 L 613.3866505506312 279.52182857142856 L 645.8188289014237 282.22285714285715 L 678.251007252216 277.00548571428567 L 707.544587698093 280.39908571428566 L 739.9767660488853 277.9981714285714 L 771.3627450980392 247.38651428571427 L 781.3627450980392 247.38651428571427" stroke-linejoin="round" visibility="visible" stroke="rgba(192,192,192,0.0001)" stroke-width="22" zIndex="2" class=" highcharts-tracker" style=""></path></g><g class="highcharts-markers highcharts-tracker" visibility="visible" zIndex="0.1" transform="translate(70,10) scale(1 1)" clip-path="url(#highcharts-10)" style=""><path fill="#1aadce" d="M 771 243.38651428571427 L 775 251.38651428571427 767 251.38651428571427 Z"></path><path fill="#1aadce" d="M 739 273.9981714285714 L 743 281.9981714285714 735 281.9981714285714 Z"></path><path fill="#1aadce" d="M 707 276.39908571428566 L 711 284.39908571428566 703 284.39908571428566 Z"></path><path fill="#1aadce" d="M 678 273.00548571428567 L 682 281.00548571428567 674 281.00548571428567 Z"></path><path fill="#1aadce" d="M 645 278.22285714285715 L 649 286.22285714285715 641 286.22285714285715 Z"></path><path fill="#1aadce" d="M 613 275.52182857142856 L 617 283.52182857142856 609 283.52182857142856 Z"></path><path fill="#1aadce" d="M 582 279.05394285714283 L 586 287.05394285714283 578 287.05394285714283 Z"></path><path fill="#1aadce" d="M 549 294.5675428571428 L 553 302.5675428571428 545 302.5675428571428 Z"></path><path fill="#1aadce" d="M 518 307.1261714285714 L 522 315.1261714285714 514 315.1261714285714 Z"></path><path fill="#1aadce" d="M 485 339.79245714285713 L 489 347.79245714285713 481 347.79245714285713 Z"></path><path fill="#1aadce" d="M 453 318.8768 L 457 326.8768 449 326.8768 Z"></path><path fill="#1aadce" d="M 421 330.5350857142857 L 425 338.5350857142857 417 338.5350857142857 Z"></path><path fill="#1aadce" d="M 389 325.94102857142855 L 393 333.94102857142855 385 333.94102857142855 Z"></path><path fill="#1aadce" d="M 358 315.8756571428571 L 362 323.8756571428571 354 323.8756571428571 Z"></path><path fill="#1aadce" d="M 325 287.8496 L 329 295.8496 321 295.8496 Z"></path><path fill="#1aadce" d="M 296 306.5952 L 300 314.5952 292 314.5952 Z"></path><path fill="#1aadce" d="M 263 269.3810285714286 L 267 277.3810285714286 259 277.3810285714286 Z"></path><path fill="#1aadce" d="M 231 274.78308571428573 L 235 282.78308571428573 227 282.78308571428573 Z"></path><path fill="#1aadce" d="M 200 293.80571428571426 L 204 301.80571428571426 196 301.80571428571426 Z"></path><path fill="#1aadce" d="M 167 290.6198857142857 L 171 298.6198857142857 163 298.6198857142857 Z"></path><path fill="#1aadce" d="M 136 272.08205714285714 L 140 280.08205714285714 132 280.08205714285714 Z"></path><path fill="#1aadce" d="M 103 279.4464 L 107 287.4464 99 287.4464 Z"></path><path fill="#1aadce" d="M 71 285.67954285714285 L 75 293.67954285714285 67 293.67954285714285 Z"></path><path fill="#1aadce" d="M 40 290.22742857142856 L 44 298.22742857142856 36 298.22742857142856 Z"></path><path fill="#1aadce" d="M 7 284.57142857142856 L 11 292.57142857142856 3 292.57142857142856 Z"></path></g><g class="highcharts-series" visibility="visible" zIndex="0.1" transform="translate(70,10) scale(1 1)" clip-path="url(#highcharts-9)"><path fill="none" d="M 7.637254901960785 288.57142857142856 L 40.06943325275316 282.5229714285714 L 71.45541230190707 278.71382857142856 L 103.88759065269944 273.54262857142857 L 136.3197690034918 270.9339428571428 L 167.70574805264573 270.88777142857145 L 200.1379264034381 272.13439999999997 L 231.523905452592 272.1805714285714 L 263.9560838033844 272.66537142857146 L 296.38826215417674 272.296 L 325.68184260005376 271.67268571428576 L 358.1140209508461 278.0905142857143 L 389.5 278.89851428571427 L 421.9321783507924 275.43565714285717 L 453.3181573999463 271.5572571428571 L 485.75033575073866 275.7126857142857 L 518.1825141015311 276.56685714285715 L 549.568493150685 267.7942857142857 L 582.0006715014773 267.9558857142857 L 613.3866505506312 266.70925714285715 L 645.8188289014237 263.56960000000004 L 678.251007252216 262.6461714285714 L 707.544587698093 265.2086857142857 L 739.9767660488853 262.6 L 771.3627450980392 257.0132571428571" stroke="#663300" stroke-width="2" zIndex="1" stroke-linejoin="round" stroke-linecap="round"></path><path fill="none" d="M -2.3627450980392153 288.57142857142856 L 7.637254901960785 288.57142857142856 L 40.06943325275316 282.5229714285714 L 71.45541230190707 278.71382857142856 L 103.88759065269944 273.54262857142857 L 136.3197690034918 270.9339428571428 L 167.70574805264573 270.88777142857145 L 200.1379264034381 272.13439999999997 L 231.523905452592 272.1805714285714 L 263.9560838033844 272.66537142857146 L 296.38826215417674 272.296 L 325.68184260005376 271.67268571428576 L 358.1140209508461 278.0905142857143 L 389.5 278.89851428571427 L 421.9321783507924 275.43565714285717 L 453.3181573999463 271.5572571428571 L 485.75033575073866 275.7126857142857 L 518.1825141015311 276.56685714285715 L 549.568493150685 267.7942857142857 L 582.0006715014773 267.9558857142857 L 613.3866505506312 266.70925714285715 L 645.8188289014237 263.56960000000004 L 678.251007252216 262.6461714285714 L 707.544587698093 265.2086857142857 L 739.9767660488853 262.6 L 771.3627450980392 257.0132571428571 L 781.3627450980392 257.0132571428571" stroke-linejoin="round" visibility="visible" stroke="rgba(192,192,192,0.0001)" stroke-width="22" zIndex="2" class=" highcharts-tracker" style=""></path></g><g class="highcharts-markers highcharts-tracker" visibility="visible" zIndex="0.1" transform="translate(70,10) scale(1 1)" clip-path="url(#highcharts-10)" style=""><path fill="#663300" d="M 771 253.01325714285713 L 775 257.0132571428571 771 261.0132571428571 767 257.0132571428571 Z"></path><path fill="#663300" d="M 739 258.6 L 743 262.6 739 266.6 735 262.6 Z"></path><path fill="#663300" d="M 707 261.2086857142857 L 711 265.2086857142857 707 269.2086857142857 703 265.2086857142857 Z"></path><path fill="#663300" d="M 678 258.6461714285714 L 682 262.6461714285714 678 266.6461714285714 674 262.6461714285714 Z"></path><path fill="#663300" d="M 645 259.56960000000004 L 649 263.56960000000004 645 267.56960000000004 641 263.56960000000004 Z"></path><path fill="#663300" d="M 613 262.70925714285715 L 617 266.70925714285715 613 270.70925714285715 609 266.70925714285715 Z"></path><path fill="#663300" d="M 582 263.9558857142857 L 586 267.9558857142857 582 271.9558857142857 578 267.9558857142857 Z"></path><path fill="#663300" d="M 549 263.7942857142857 L 553 267.7942857142857 549 271.7942857142857 545 267.7942857142857 Z"></path><path fill="#663300" d="M 518 272.56685714285715 L 522 276.56685714285715 518 280.56685714285715 514 276.56685714285715 Z"></path><path fill="#663300" d="M 485 271.7126857142857 L 489 275.7126857142857 485 279.7126857142857 481 275.7126857142857 Z"></path><path fill="#663300" d="M 453 267.5572571428571 L 457 271.5572571428571 453 275.5572571428571 449 271.5572571428571 Z"></path><path fill="#663300" d="M 421 271.43565714285717 L 425 275.43565714285717 421 279.43565714285717 417 275.43565714285717 Z"></path><path fill="#663300" d="M 389 274.89851428571427 L 393 278.89851428571427 389 282.89851428571427 385 278.89851428571427 Z"></path><path fill="#663300" d="M 358 274.0905142857143 L 362 278.0905142857143 358 282.0905142857143 354 278.0905142857143 Z"></path><path fill="#663300" d="M 325 267.67268571428576 L 329 271.67268571428576 325 275.67268571428576 321 271.67268571428576 Z"></path><path fill="#663300" d="M 296 268.296 L 300 272.296 296 276.296 292 272.296 Z"></path><path fill="#663300" d="M 263 268.66537142857146 L 267 272.66537142857146 263 276.66537142857146 259 272.66537142857146 Z"></path><path fill="#663300" d="M 231 268.1805714285714 L 235 272.1805714285714 231 276.1805714285714 227 272.1805714285714 Z"></path><path fill="#663300" d="M 200 268.13439999999997 L 204 272.13439999999997 200 276.13439999999997 196 272.13439999999997 Z"></path><path fill="#663300" d="M 167 266.88777142857145 L 171 270.88777142857145 167 274.88777142857145 163 270.88777142857145 Z"></path><path fill="#663300" d="M 136 266.9339428571428 L 140 270.9339428571428 136 274.9339428571428 132 270.9339428571428 Z"></path><path fill="#663300" d="M 103 269.54262857142857 L 107 273.54262857142857 103 277.54262857142857 99 273.54262857142857 Z"></path><path fill="#663300" d="M 71 274.71382857142856 L 75 278.71382857142856 71 282.71382857142856 67 278.71382857142856 Z"></path><path fill="#663300" d="M 40 278.5229714285714 L 44 282.5229714285714 40 286.5229714285714 36 282.5229714285714 Z"></path><path fill="#663300" d="M 7 284.57142857142856 L 11 288.57142857142856 7 292.57142857142856 3 288.57142857142856 Z"></path></g><g class="highcharts-series" visibility="visible" zIndex="0.1" transform="translate(70,10) scale(1 1)" clip-path="url(#highcharts-9)"><path fill="none" d="M 7.637254901960785 288.57142857142856 L 40.06943325275316 289.2870857142857 L 71.45541230190707 286.10125714285715 L 103.88759065269944 287.0708571428571 L 136.3197690034918 289.97965714285715 L 167.70574805264573 291.52639999999997 L 200.1379264034381 289.2178285714286 L 231.523905452592 293.07314285714284 L 263.9560838033844 295.5664 L 296.38826215417674 302.16891428571427 L 325.68184260005376 305.4009142857143 L 358.1140209508461 306.09348571428575 L 389.5 306.78605714285715 L 421.9321783507924 304.8468571428571 L 453.3181573999463 311.08 L 485.75033575073866 307.27085714285715 L 518.1825141015311 310.272 L 549.568493150685 309.39474285714283 L 582.0006715014773 311.9341714285714 L 613.3866505506312 313.57325714285713 L 645.8188289014237 314.84297142857145 L 678.251007252216 314.3812571428572 L 707.544587698093 311.1954285714286 L 739.9767660488853 309.4409142857143 L 771.3627450980392 308.1481142857143" stroke="#f42525" stroke-width="2" zIndex="1" stroke-linejoin="round" stroke-linecap="round"></path><path fill="none" d="M -2.3627450980392153 288.57142857142856 L 7.637254901960785 288.57142857142856 L 40.06943325275316 289.2870857142857 L 71.45541230190707 286.10125714285715 L 103.88759065269944 287.0708571428571 L 136.3197690034918 289.97965714285715 L 167.70574805264573 291.52639999999997 L 200.1379264034381 289.2178285714286 L 231.523905452592 293.07314285714284 L 263.9560838033844 295.5664 L 296.38826215417674 302.16891428571427 L 325.68184260005376 305.4009142857143 L 358.1140209508461 306.09348571428575 L 389.5 306.78605714285715 L 421.9321783507924 304.8468571428571 L 453.3181573999463 311.08 L 485.75033575073866 307.27085714285715 L 518.1825141015311 310.272 L 549.568493150685 309.39474285714283 L 582.0006715014773 311.9341714285714 L 613.3866505506312 313.57325714285713 L 645.8188289014237 314.84297142857145 L 678.251007252216 314.3812571428572 L 707.544587698093 311.1954285714286 L 739.9767660488853 309.4409142857143 L 771.3627450980392 308.1481142857143 L 781.3627450980392 308.1481142857143" stroke-linejoin="round" visibility="visible" stroke="rgba(192,192,192,0.0001)" stroke-width="22" zIndex="2" class=" highcharts-tracker" style=""></path></g><g class="highcharts-markers highcharts-tracker" visibility="visible" zIndex="0.1" transform="translate(70,10) scale(1 1)" clip-path="url(#highcharts-10)" style=""><path fill="#f42525" d="M 771 304.1481142857143 C 776.328 304.1481142857143 776.328 312.1481142857143 771 312.1481142857143 C 765.672 312.1481142857143 765.672 304.1481142857143 771 304.1481142857143 Z"></path><path fill="#f42525" d="M 739 305.4409142857143 C 744.328 305.4409142857143 744.328 313.4409142857143 739 313.4409142857143 C 733.672 313.4409142857143 733.672 305.4409142857143 739 305.4409142857143 Z"></path><path fill="#f42525" d="M 707 307.1954285714286 C 712.328 307.1954285714286 712.328 315.1954285714286 707 315.1954285714286 C 701.672 315.1954285714286 701.672 307.1954285714286 707 307.1954285714286 Z"></path><path fill="#f42525" d="M 678 310.3812571428572 C 683.328 310.3812571428572 683.328 318.3812571428572 678 318.3812571428572 C 672.672 318.3812571428572 672.672 310.3812571428572 678 310.3812571428572 Z"></path><path fill="#f42525" d="M 645 310.84297142857145 C 650.328 310.84297142857145 650.328 318.84297142857145 645 318.84297142857145 C 639.672 318.84297142857145 639.672 310.84297142857145 645 310.84297142857145 Z"></path><path fill="#f42525" d="M 613 309.57325714285713 C 618.328 309.57325714285713 618.328 317.57325714285713 613 317.57325714285713 C 607.672 317.57325714285713 607.672 309.57325714285713 613 309.57325714285713 Z"></path><path fill="#f42525" d="M 582.0006715014773 307.9341714285714 C 587.3286715014773 307.9341714285714 587.3286715014773 315.9341714285714 582.0006715014773 315.9341714285714 C 576.6726715014773 315.9341714285714 576.6726715014773 307.9341714285714 582.0006715014773 307.9341714285714 Z" stroke-width="1"></path><path fill="#f42525" d="M 549 305.39474285714283 C 554.328 305.39474285714283 554.328 313.39474285714283 549 313.39474285714283 C 543.672 313.39474285714283 543.672 305.39474285714283 549 305.39474285714283 Z"></path><path fill="#f42525" d="M 518 306.272 C 523.328 306.272 523.328 314.272 518 314.272 C 512.672 314.272 512.672 306.272 518 306.272 Z"></path><path fill="#f42525" d="M 485 303.27085714285715 C 490.328 303.27085714285715 490.328 311.27085714285715 485 311.27085714285715 C 479.672 311.27085714285715 479.672 303.27085714285715 485 303.27085714285715 Z"></path><path fill="#f42525" d="M 453 307.08 C 458.328 307.08 458.328 315.08 453 315.08 C 447.672 315.08 447.672 307.08 453 307.08 Z"></path><path fill="#f42525" d="M 421 300.8468571428571 C 426.328 300.8468571428571 426.328 308.8468571428571 421 308.8468571428571 C 415.672 308.8468571428571 415.672 300.8468571428571 421 300.8468571428571 Z"></path><path fill="#f42525" d="M 389 302.78605714285715 C 394.328 302.78605714285715 394.328 310.78605714285715 389 310.78605714285715 C 383.672 310.78605714285715 383.672 302.78605714285715 389 302.78605714285715 Z"></path><path fill="#f42525" d="M 358 302.09348571428575 C 363.328 302.09348571428575 363.328 310.09348571428575 358 310.09348571428575 C 352.672 310.09348571428575 352.672 302.09348571428575 358 302.09348571428575 Z"></path><path fill="#f42525" d="M 325 301.4009142857143 C 330.328 301.4009142857143 330.328 309.4009142857143 325 309.4009142857143 C 319.672 309.4009142857143 319.672 301.4009142857143 325 301.4009142857143 Z"></path><path fill="#f42525" d="M 296 298.16891428571427 C 301.328 298.16891428571427 301.328 306.16891428571427 296 306.16891428571427 C 290.672 306.16891428571427 290.672 298.16891428571427 296 298.16891428571427 Z"></path><path fill="#f42525" d="M 263 291.5664 C 268.328 291.5664 268.328 299.5664 263 299.5664 C 257.672 299.5664 257.672 291.5664 263 291.5664 Z"></path><path fill="#f42525" d="M 231 289.07314285714284 C 236.328 289.07314285714284 236.328 297.07314285714284 231 297.07314285714284 C 225.672 297.07314285714284 225.672 289.07314285714284 231 289.07314285714284 Z"></path><path fill="#f42525" d="M 200 285.2178285714286 C 205.328 285.2178285714286 205.328 293.2178285714286 200 293.2178285714286 C 194.672 293.2178285714286 194.672 285.2178285714286 200 285.2178285714286 Z"></path><path fill="#f42525" d="M 167 287.52639999999997 C 172.328 287.52639999999997 172.328 295.52639999999997 167 295.52639999999997 C 161.672 295.52639999999997 161.672 287.52639999999997 167 287.52639999999997 Z"></path><path fill="#f42525" d="M 136 285.97965714285715 C 141.328 285.97965714285715 141.328 293.97965714285715 136 293.97965714285715 C 130.672 293.97965714285715 130.672 285.97965714285715 136 285.97965714285715 Z"></path><path fill="#f42525" d="M 103 283.0708571428571 C 108.328 283.0708571428571 108.328 291.0708571428571 103 291.0708571428571 C 97.672 291.0708571428571 97.672 283.0708571428571 103 283.0708571428571 Z"></path><path fill="#f42525" d="M 71 282.10125714285715 C 76.328 282.10125714285715 76.328 290.10125714285715 71 290.10125714285715 C 65.672 290.10125714285715 65.672 282.10125714285715 71 282.10125714285715 Z"></path><path fill="#f42525" d="M 40 285.2870857142857 C 45.328 285.2870857142857 45.328 293.2870857142857 40 293.2870857142857 C 34.672 293.2870857142857 34.672 285.2870857142857 40 285.2870857142857 Z"></path><path fill="#f42525" d="M 7 284.57142857142856 C 12.328 284.57142857142856 12.328 292.57142857142856 7 292.57142857142856 C 1.672 292.57142857142856 1.672 284.57142857142856 7 284.57142857142856 Z"></path></g></g><g class="highcharts-legend" zIndex="7" transform="translate(861,140)"><g zIndex="1"><g><g class="highcharts-legend-item" zIndex="1" transform="translate(8,3)"><path fill="none" d="M 0 11 L 16 11" stroke="#3300aa" stroke-width="2"></path><path fill="#3300aa" d="M 4 7 L 12 7 8 15 Z"></path><text x="21" style="color:#333333;font-size:12px;font-weight:normal;cursor:pointer;fill:#333333;" text-anchor="start" zIndex="2" y="15"><tspan>Time Series DBMS</tspan></text></g><g class="highcharts-legend-item" zIndex="1" transform="translate(8,17)"><path fill="none" d="M 0 11 L 16 11" stroke="#8bbc21" stroke-width="2"></path><path fill="#8bbc21" d="M 8 7 C 13.328 7 13.328 15 8 15 C 2.6719999999999997 15 2.6719999999999997 7 8 7 Z"></path><text x="21" y="15" style="color:#333333;font-size:12px;font-weight:normal;cursor:pointer;fill:#333333;" text-anchor="start" zIndex="2"><tspan>Graph DBMS</tspan></text></g><g class="highcharts-legend-item" zIndex="1" transform="translate(8,31)"><path fill="none" d="M 0 11 L 16 11" stroke="#910000" stroke-width="2"></path><path fill="#910000" d="M 8 7 L 12 15 4 15 Z"></path><text x="21" y="15" style="color:#333333;font-size:12px;font-weight:normal;cursor:pointer;fill:#333333;" text-anchor="start" zIndex="2"><tspan>Key-value stores</tspan></text></g><g class="highcharts-legend-item" zIndex="1" transform="translate(8,45)"><path fill="none" d="M 0 11 L 16 11" stroke="#00aa00" stroke-width="2"></path><path fill="#00aa00" d="M 4 7 L 12 7 8 15 Z"></path><text x="21" y="15" style="color:#333333;font-size:12px;font-weight:normal;cursor:pointer;fill:#333333;" text-anchor="start" zIndex="2"><tspan>Search engines</tspan></text></g><g class="highcharts-legend-item" zIndex="1" transform="translate(8,59)"><path fill="none" d="M 0 11 L 16 11" stroke="#a6c96a" stroke-width="2"></path><path fill="#a6c96a" d="M 8 7 C 13.328 7 13.328 15 8 15 C 2.6719999999999997 15 2.6719999999999997 7 8 7 Z"></path><text x="21" y="15" style="color:#333333;font-size:12px;font-weight:normal;cursor:pointer;fill:#333333;" text-anchor="start" zIndex="2"><tspan>RDF stores</tspan></text></g><g class="highcharts-legend-item" zIndex="1" transform="translate(8,73)"><path fill="none" d="M 0 11 L 16 11" stroke="#0d233a" stroke-width="2"></path><path fill="#0d233a" d="M 4 7 L 12 7 12 15 4 15 Z"></path><text x="21" y="15" style="color:#333333;font-size:12px;font-weight:normal;cursor:pointer;fill:#333333;" text-anchor="start" zIndex="2"><tspan>Document stores</tspan></text></g><g class="highcharts-legend-item" zIndex="1" transform="translate(8,87)"><path fill="none" d="M 0 11 L 16 11" stroke="#492970" stroke-width="2"></path><path fill="#492970" d="M 8 7 L 12 11 8 15 4 11 Z"></path><text x="21" y="15" style="color:#333333;font-size:12px;font-weight:normal;cursor:pointer;fill:#333333;" text-anchor="start" zIndex="2"><tspan>Native XML DBMS</tspan></text></g><g class="highcharts-legend-item" zIndex="1" transform="translate(8,101)"><path fill="none" d="M 0 11 L 16 11" stroke="#77a1e5" stroke-width="2"></path><path fill="#77a1e5" d="M 4 7 L 12 7 12 15 4 15 Z"></path><text x="21" y="15" style="color:#333333;font-size:12px;font-weight:normal;cursor:pointer;fill:#333333;" text-anchor="start" zIndex="2"><tspan>Object oriented DBMS</tspan></text></g><g class="highcharts-legend-item" zIndex="1" transform="translate(8,115)"><path fill="none" d="M 0 11 L 16 11" stroke="#1aadce" stroke-width="2"></path><path fill="#1aadce" d="M 8 7 L 12 15 4 15 Z"></path><text x="21" y="15" style="color:#333333;font-size:12px;font-weight:normal;cursor:pointer;fill:#333333;" text-anchor="start" zIndex="2"><tspan>Multivalue DBMS</tspan></text></g><g class="highcharts-legend-item" zIndex="1" transform="translate(8,129)"><path fill="none" d="M 0 11 L 16 11" stroke="#663300" stroke-width="2"></path><path fill="#663300" d="M 8 7 L 12 11 8 15 4 11 Z"></path><text x="21" y="15" style="color:#333333;font-size:12px;font-weight:normal;cursor:pointer;fill:#333333;" text-anchor="start" zIndex="2"><tspan>Wide column stores</tspan></text></g><g class="highcharts-legend-item" zIndex="1" transform="translate(8,143)"><path fill="none" d="M 0 11 L 16 11" stroke="#f42525" stroke-width="2"></path><path fill="#f42525" d="M 8 7 C 13.328 7 13.328 15 8 15 C 2.6719999999999997 15 2.6719999999999997 7 8 7 Z"></path><text x="21" y="15" style="color:#333333;font-size:12px;font-weight:normal;cursor:pointer;fill:#333333;" text-anchor="start" zIndex="2"><tspan>Relational DBMS</tspan></text></g></g></g></g><g class="highcharts-axis-labels highcharts-xaxis-labels" zIndex="7"><text x="141.45541230190707" style="color:#606060;cursor:default;font-size:11px;fill:#606060;width:95px;text-overflow:clip;" text-anchor="middle" transform="translate(0,0)" y="433" opacity="1"><tspan>Jul 2017</tspan></text><text x="237.70574805264573" style="color:#606060;cursor:default;font-size:11px;fill:#606060;width:95px;text-overflow:clip;" text-anchor="middle" transform="translate(0,0)" y="433" opacity="1"><tspan>Oct 2017</tspan></text><text x="333.9560838033844" style="color:#606060;cursor:default;font-size:11px;fill:#606060;width:95px;text-overflow:clip;" text-anchor="middle" transform="translate(0,0)" y="433" opacity="1"><tspan>Jan 2018</tspan></text><text x="428.1140209508461" style="color:#606060;cursor:default;font-size:11px;fill:#606060;width:95px;text-overflow:clip;" text-anchor="middle" transform="translate(0,0)" y="433" opacity="1"><tspan>Apr 2018</tspan></text><text x="523.3181573999464" style="color:#606060;cursor:default;font-size:11px;fill:#606060;width:95px;text-overflow:clip;" text-anchor="middle" transform="translate(0,0)" y="433" opacity="1"><tspan>Jul 2018</tspan></text><text x="619.568493150685" style="color:#606060;cursor:default;font-size:11px;fill:#606060;width:95px;text-overflow:clip;" text-anchor="middle" transform="translate(0,0)" y="433" opacity="1"><tspan>Oct 2018</tspan></text><text x="715.8188289014237" style="color:#606060;cursor:default;font-size:11px;fill:#606060;width:95px;text-overflow:clip;" text-anchor="middle" transform="translate(0,0)" y="433" opacity="1"><tspan>Jan 2019</tspan></text><text x="809.9767660488853" style="color:#606060;cursor:default;font-size:11px;fill:#606060;width:95px;text-overflow:clip;" text-anchor="middle" transform="translate(0,0)" y="433" opacity="1"><tspan>Apr 2019</tspan></text></g><g class="highcharts-axis-labels highcharts-yaxis-labels" zIndex="7"><text x="55" style="color:#606060;cursor:default;font-size:11px;fill:#606060;width:332px;text-overflow:clip;" text-anchor="end" transform="translate(0,0)" y="419" opacity="1">50</text><text x="55" style="color:#606060;cursor:default;font-size:11px;fill:#606060;width:332px;text-overflow:clip;" text-anchor="end" transform="translate(0,0)" y="361" opacity="1">75</text><text x="55" style="color:#606060;cursor:default;font-size:11px;fill:#606060;width:332px;text-overflow:clip;" text-anchor="end" transform="translate(0,0)" y="303" opacity="1">100</text><text x="55" style="color:#606060;cursor:default;font-size:11px;fill:#606060;width:332px;text-overflow:clip;" text-anchor="end" transform="translate(0,0)" y="245" opacity="1">125</text><text x="55" style="color:#606060;cursor:default;font-size:11px;fill:#606060;width:332px;text-overflow:clip;" text-anchor="end" transform="translate(0,0)" y="188" opacity="1">150</text><text x="55" style="color:#606060;cursor:default;font-size:11px;fill:#606060;width:332px;text-overflow:clip;" text-anchor="end" transform="translate(0,0)" y="130" opacity="1">175</text><text x="55" style="color:#606060;cursor:default;font-size:11px;fill:#606060;width:332px;text-overflow:clip;" text-anchor="end" transform="translate(0,0)" y="72" opacity="1">200</text><text x="55" style="color:#606060;cursor:default;font-size:11px;fill:#606060;width:332px;text-overflow:clip;" text-anchor="end" transform="translate(0,0)" y="15" opacity="1">225</text></g><g class="highcharts-tooltip" zIndex="8" style="cursor:default;padding:0;white-space:nowrap;" transform="translate(631,-9999)" opacity="0" visibility="visible"><path fill="none" d="M 3.5 0.5 L 167.5 0.5 C 170.5 0.5 170.5 0.5 170.5 3.5 L 170.5 40.5 C 170.5 43.5 170.5 43.5 167.5 43.5 L 91.5 43.5 85.5 49.5 79.5 43.5 3.5 43.5 C 0.5 43.5 0.5 43.5 0.5 40.5 L 0.5 3.5 C 0.5 0.5 0.5 0.5 3.5 0.5" isShadow="true" stroke="black" stroke-opacity="0.049999999999999996" stroke-width="5" transform="translate(1, 1)" width="170" height="43"></path><path fill="none" d="M 3.5 0.5 L 167.5 0.5 C 170.5 0.5 170.5 0.5 170.5 3.5 L 170.5 40.5 C 170.5 43.5 170.5 43.5 167.5 43.5 L 91.5 43.5 85.5 49.5 79.5 43.5 3.5 43.5 C 0.5 43.5 0.5 43.5 0.5 40.5 L 0.5 3.5 C 0.5 0.5 0.5 0.5 3.5 0.5" isShadow="true" stroke="black" stroke-opacity="0.09999999999999999" stroke-width="3" transform="translate(1, 1)" width="170" height="43"></path><path fill="none" d="M 3.5 0.5 L 167.5 0.5 C 170.5 0.5 170.5 0.5 170.5 3.5 L 170.5 40.5 C 170.5 43.5 170.5 43.5 167.5 43.5 L 91.5 43.5 85.5 49.5 79.5 43.5 3.5 43.5 C 0.5 43.5 0.5 43.5 0.5 40.5 L 0.5 3.5 C 0.5 0.5 0.5 0.5 3.5 0.5" isShadow="true" stroke="black" stroke-opacity="0.15" stroke-width="1" transform="translate(1, 1)" width="170" height="43"></path><path fill="rgba(249, 249, 249, .85)" d="M 3.5 0.5 L 167.5 0.5 C 170.5 0.5 170.5 0.5 170.5 3.5 L 170.5 40.5 C 170.5 43.5 170.5 43.5 167.5 43.5 L 91.5 43.5 85.5 49.5 79.5 43.5 3.5 43.5 C 0.5 43.5 0.5 43.5 0.5 40.5 L 0.5 3.5 C 0.5 0.5 0.5 0.5 3.5 0.5" stroke="#3300aa" stroke-width="1"></path><text x="8" zIndex="1" style="font-size:12px;color:#333333;fill:#333333;" transform="translate(0,20)"><tspan style="font-size: 10px">January 2019</tspan><tspan x="8" dy="15">Time Series DBMS: 180.43</tspan></text></g><text x="518" text-anchor="middle" zIndex="8" style="cursor:pointer;color:#909090;font-size:100%;fill:#909090;" y="447"><tspan> 2019, DB-Engines.com</tspan></text></svg>