<?xml version="1.0" encoding="UTF-8" standalone="no"?>
<svg
   xmlns:dc="http://purl.org/dc/elements/1.1/"
   xmlns:cc="http://creativecommons.org/ns#"
   xmlns:rdf="http://www.w3.org/1999/02/22-rdf-syntax-ns#"
   xmlns:svg="http://www.w3.org/2000/svg"
   xmlns="http://www.w3.org/2000/svg"
   xmlns:sodipodi="http://sodipodi.sourceforge.net/DTD/sodipodi-0.dtd"
   xmlns:inkscape="http://www.inkscape.org/namespaces/inkscape"
   inkscape:version="1.0beta2 (2b71d25, 2019-12-03)"
   sodipodi:docname="logo.svg"
   xml:space="preserve"
   style="enable-background:new 0 0 101.5 103;"
   viewBox="0 0 101.5 103"
   y="0px"
   x="0px"
   id="Layer_1"
   version="1.1"><metadata
   id="metadata284"><rdf:RDF><cc:Work
       rdf:about=""><dc:format>image/svg+xml</dc:format><dc:type
         rdf:resource="http://purl.org/dc/dcmitype/StillImage" /></cc:Work></rdf:RDF></metadata><defs
   id="defs282" /><sodipodi:namedview
   inkscape:current-layer="Layer_1"
   inkscape:window-maximized="0"
   inkscape:window-y="23"
   inkscape:window-x="0"
   inkscape:cy="51.5"
   inkscape:cx="50.75"
   inkscape:zoom="2.7961165"
   showgrid="false"
   id="namedview280"
   inkscape:window-height="454"
   inkscape:window-width="655"
   inkscape:pageshadow="2"
   inkscape:pageopacity="0"
   guidetolerance="10"
   gridtolerance="10"
   objecttolerance="10"
   borderopacity="1"
   inkscape:document-rotation="0"
   bordercolor="#666666"
   pagecolor="#ffffff" />
<style
   id="style231"
   type="text/css">
	.st0{fill:#A22322;}
	.st1{fill:#DB382C;}
	.st2{fill:#FFFFFF;}
	.st3{fill:#741113;}
	.st4{fill:#AB2724;}
	.st5{fill:#364253;stroke:#FFFFFF;stroke-width:1.52;stroke-miterlimit:10;}
</style>
<title
   id="title233">redis-enterprise-cube</title>





















<g
   id="g308"><path
     class="st0"
     d="M96.8,66.1c-5.3,2.8-33,14.1-38.8,17.2s-9.2,3-13.8,0.8S10.1,70,4.8,67.5c-2.7-1.3-4-2.3-4-3.3V54  c0,0,38.3-8.3,44.5-10.6s8.3-2.3,13.6-0.4s36.7,7.6,41.9,9.5c0,0,0,9,0,10S99.6,64.7,96.8,66.1z"
     id="path235" /><path
     class="st1"
     d="M96.8,56c-5.3,2.8-33,14.1-38.8,17.2s-9.2,3-13.8,0.8S10.1,59.9,4.8,57.4s-5.4-4.3-0.2-6.3s34.5-13.5,40.6-15.7  S53.6,33,58.8,35s32.7,12.8,37.9,14.7S102.2,53.2,96.8,56z"
     id="path237" /><path
     class="st0"
     d="M96.8,49.6c-5.3,2.8-33,14.2-38.8,17.2s-9.2,3-13.8,0.8S10.1,53.5,4.8,51c-2.7-1.3-4-2.3-4-3.3V37.5  c0,0,38.3-8.3,44.4-10.5s8.3-2.3,13.6-0.4s36.7,7.6,41.9,9.5c0,0,0,9,0,10S99.6,48.2,96.8,49.6z"
     id="path239" /><path
     class="st1"
     d="M96.8,39.5c-5.3,2.8-33,14.1-38.8,17.2s-9.2,3-13.8,0.8S10.1,43.4,4.8,40.9s-5.4-4.3-0.2-6.3S39.1,21,45.2,18.8  s8.3-2.3,13.6-0.4s32.7,12.9,37.9,14.8S102.2,36.7,96.8,39.5z"
     id="path241" /><path
     class="st0"
     d="M96.8,32.5c-5.3,2.8-33,14.2-38.8,17.2s-9.2,3-13.8,0.8S10.1,36.4,4.8,33.9c-2.7-1.3-4-2.3-4-3.4V20.5  c0,0,38.3-8.3,44.4-10.6s8.3-2.3,13.6-0.4s36.7,7.6,41.9,9.5c0,0,0,9,0,10S99.6,31.1,96.8,32.5z"
     id="path243" /><path
     class="st1"
     d="M96.8,22.4c-5.3,2.8-33,14.1-38.8,17.2s-9.2,3-13.8,0.8S10.1,26.3,4.8,23.8s-5.4-4.3-0.2-6.3S39.1,4,45.2,1.7  s8.3-2.3,13.6-0.4s32.7,12.9,37.9,14.8S102.2,19.6,96.8,22.4z"
     id="path245" /><polygon
     class="st2"
     points="52.3,8 58.9,5.9 57.1,10.1 63.9,12.7 55.2,13.6 53.2,18.2 50.1,13 40.1,12.1 47.6,9.4 45.3,5.3 "
     id="polygon247" /><polygon
     class="st2"
     points="52.7,35.3 36.6,28.6 59.7,25 "
     id="polygon249" /><ellipse
     class="st2"
     cx="30.3"
     cy="20.1"
     rx="12.4"
     ry="4.8"
     id="ellipse251" /><polygon
     class="st3"
     points="74.1,13.9 87.8,19.4 74.1,24.8 "
     id="polygon253" /><polygon
     class="st4"
     points="74.1,13.9 74.1,24.8 72.6,25.4 58.9,19.9 "
     id="polygon255" /><rect
     x="0.8"
     y="75"
     class="st5"
     width="100"
     height="27.3"
     id="rect257" /><path
     class="st2"
     d="M17.9,83.7v1.5h-4.4v2.7h3.4v1.4h-3.4v2.8h4.4v1.5h-6.2v-9.9H17.9z"
     id="path259" /><path
     class="st2"
     d="M20.6,83.7c0,0,0.1,0,0.1,0c0,0,0.1,0.1,0.1,0.1c0,0.1,0.1,0.1,0.1,0.2l5.2,6.6c0-0.2,0-0.3,0-0.5  c0-0.2,0-0.3,0-0.4v-6h1.6v9.9h-0.9c-0.1,0-0.3,0-0.4-0.1c-0.1-0.1-0.2-0.1-0.3-0.2L21,86.7v0.4c0,0.1,0,0.3,0,0.4v6.1h-1.5v-9.9  L20.6,83.7L20.6,83.7z"
     id="path261" /><path
     class="st2"
     d="M36.7,83.7v1.5h-3v8.4h-1.8v-8.4h-3v-1.5H36.7z"
     id="path263" /><path
     class="st2"
     d="M44.1,83.7v1.5h-4.4v2.7h3.4v1.4h-3.4v2.8h4.4v1.5h-6.2v-9.9H44.1z"
     id="path265" /><path
     class="st2"
     d="M47.6,89.7v3.9h-1.8v-9.9h3c0.6,0,1.2,0.1,1.7,0.2c0.4,0.1,0.8,0.3,1.2,0.6c0.3,0.2,0.5,0.5,0.7,0.9  c0.1,0.4,0.2,0.8,0.2,1.2c0,0.3,0,0.6-0.2,0.9c-0.1,0.3-0.2,0.6-0.4,0.8c-0.2,0.2-0.4,0.5-0.7,0.6c-0.3,0.2-0.6,0.3-0.9,0.4  c0.2,0.1,0.4,0.3,0.6,0.6l2.5,3.6h-1.7c-0.1,0-0.3,0-0.4-0.1c-0.1-0.1-0.2-0.2-0.3-0.3L49,90c-0.1-0.1-0.1-0.2-0.2-0.2  c-0.1-0.1-0.3-0.1-0.4-0.1L47.6,89.7z M47.6,88.4h1.2c0.3,0,0.6,0,0.9-0.1c0.2-0.1,0.4-0.2,0.6-0.4c0.2-0.1,0.3-0.3,0.4-0.5  c0.1-0.2,0.1-0.5,0.1-0.7c0-0.4-0.2-0.9-0.5-1.2c-0.4-0.3-1-0.4-1.5-0.4h-1.2V88.4z"
     id="path267" /><path
     class="st2"
     d="M56.5,90.1v3.5h-1.8v-9.9h3.2c0.6,0,1.2,0.1,1.7,0.2c0.4,0.1,0.8,0.3,1.2,0.7c0.3,0.3,0.6,0.6,0.7,1  c0.3,0.8,0.3,1.7,0,2.6c-0.2,0.4-0.4,0.7-0.7,1c-0.3,0.3-0.8,0.5-1.2,0.7c-0.5,0.2-1.1,0.3-1.7,0.2L56.5,90.1z M56.5,88.6h1.4  c0.3,0,0.6,0,0.9-0.1c0.2-0.1,0.4-0.2,0.6-0.4c0.2-0.2,0.3-0.4,0.4-0.6c0.1-0.2,0.1-0.5,0.1-0.8c0-0.2,0-0.5-0.1-0.7  c-0.1-0.2-0.2-0.4-0.4-0.5c-0.2-0.2-0.4-0.3-0.6-0.3c-0.3-0.1-0.6-0.1-0.9-0.1h-1.4V88.6z"
     id="path269" /><path
     class="st2"
     d="M65,89.7v3.9h-1.8v-9.9h3c0.6,0,1.2,0.1,1.7,0.2c0.4,0.1,0.8,0.3,1.2,0.6c0.3,0.2,0.5,0.5,0.7,0.9  c0.2,0.4,0.2,0.8,0.2,1.2c0,0.3,0,0.6-0.1,0.9c-0.1,0.3-0.2,0.6-0.4,0.8c-0.2,0.2-0.4,0.5-0.7,0.6c-0.3,0.2-0.6,0.3-0.9,0.4  c0.2,0.1,0.4,0.3,0.6,0.6l2.5,3.6h-1.7c-0.1,0-0.3,0-0.4-0.1c-0.1-0.1-0.2-0.2-0.3-0.3L66.5,90c-0.1-0.1-0.2-0.2-0.3-0.2  c-0.1-0.1-0.3-0.1-0.4-0.1L65,89.7z M65,88.4h1.2c0.3,0,0.6,0,0.9-0.1c0.2-0.1,0.5-0.2,0.6-0.4c0.2-0.1,0.3-0.3,0.4-0.5  c0.1-0.2,0.1-0.5,0.1-0.7c0-0.4-0.2-0.9-0.5-1.2c-0.4-0.3-1-0.4-1.5-0.4H65V88.4z"
     id="path271" /><path
     class="st2"
     d="M74.1,93.5h-1.8v-9.9h1.8V93.5z"
     id="path273" /><path
     class="st2"
     d="M81.6,85.5c0,0.1-0.1,0.2-0.2,0.2c-0.1,0-0.1,0.1-0.2,0.1c-0.1,0-0.2,0-0.3-0.1l-0.4-0.2  c-0.2-0.1-0.4-0.2-0.5-0.2c-0.2-0.1-0.5-0.1-0.7-0.1c-0.2,0-0.4,0-0.7,0.1c-0.2,0.1-0.3,0.1-0.5,0.3c-0.1,0.1-0.2,0.2-0.3,0.4  c-0.1,0.2-0.1,0.3-0.1,0.5c0,0.2,0.1,0.4,0.2,0.6c0.1,0.2,0.3,0.3,0.5,0.4c0.2,0.1,0.5,0.2,0.7,0.3l0.8,0.3c0.3,0.1,0.6,0.2,0.8,0.3  c0.3,0.1,0.5,0.3,0.7,0.5c0.2,0.2,0.4,0.4,0.5,0.7c0.1,0.3,0.2,0.7,0.2,1c0,0.4-0.1,0.9-0.2,1.3c-0.2,0.4-0.4,0.7-0.7,1  c-0.3,0.3-0.7,0.5-1.1,0.7c-0.5,0.2-1,0.3-1.4,0.2c-0.3,0-0.6,0-0.9-0.1c-0.3-0.1-0.6-0.1-0.9-0.3c-0.3-0.1-0.5-0.2-0.8-0.4  c-0.2-0.2-0.5-0.3-0.7-0.5l0.5-0.9c0.1-0.1,0.1-0.1,0.2-0.2c0.1,0,0.1-0.1,0.2-0.1c0.1,0,0.3,0.1,0.4,0.1c0.1,0.1,0.3,0.2,0.5,0.3  c0.2,0.1,0.4,0.2,0.6,0.3c0.3,0.1,0.6,0.1,0.9,0.1c0.4,0,0.9-0.1,1.2-0.4c0.3-0.3,0.5-0.7,0.4-1.1c0-0.2-0.1-0.5-0.2-0.6  c-0.1-0.2-0.3-0.3-0.5-0.4c-0.2-0.1-0.5-0.2-0.7-0.3c-0.3-0.1-0.6-0.2-0.8-0.3c-0.3-0.1-0.6-0.2-0.8-0.3c-0.3-0.1-0.5-0.3-0.7-0.5  c-0.2-0.2-0.4-0.5-0.5-0.8C76,87.2,76,86.8,76,86.4c0-0.4,0.1-0.7,0.2-1.1c0.1-0.3,0.4-0.7,0.6-0.9c0.3-0.3,0.6-0.5,1-0.6  c0.4-0.2,0.9-0.2,1.4-0.2c0.5,0,1.1,0.1,1.6,0.3c0.5,0.2,0.9,0.4,1.3,0.8L81.6,85.5z"
     id="path275" /><path
     class="st2"
     d="M89.9,83.7v1.5h-4.4v2.7H89v1.4h-3.5v2.8h4.4v1.5h-6.2v-9.9H89.9z"
     id="path277" /></g>
</svg>
