<?xml version="1.0" encoding="UTF-8" standalone="no"?>
<svg
   xmlns:dc="http://purl.org/dc/elements/1.1/"
   xmlns:cc="http://creativecommons.org/ns#"
   xmlns:rdf="http://www.w3.org/1999/02/22-rdf-syntax-ns#"
   xmlns:svg="http://www.w3.org/2000/svg"
   xmlns="http://www.w3.org/2000/svg"
   xmlns:sodipodi="http://sodipodi.sourceforge.net/DTD/sodipodi-0.dtd"
   xmlns:inkscape="http://www.inkscape.org/namespaces/inkscape"
   width="250"
   height="213.46379"
   viewBox="0 0 25.6 21.863144"
   preserveAspectRatio="xMinYMin meet"
   version="1.1"
   id="svg20"
   sodipodi:docname="redis.svg"
   inkscape:version="0.92.2 5c3e80d, 2017-08-06">
  <metadata
     id="metadata26">
    <rdf:RDF>
      <cc:Work
         rdf:about="">
        <dc:format>image/svg+xml</dc:format>
        <dc:type
           rdf:resource="http://purl.org/dc/dcmitype/StillImage" />
        <dc:title></dc:title>
      </cc:Work>
    </rdf:RDF>
  </metadata>
  <defs
     id="defs24" />
  <sodipodi:namedview
     pagecolor="#ffffff"
     bordercolor="#666666"
     borderopacity="1"
     objecttolerance="10"
     gridtolerance="10"
     guidetolerance="10"
     inkscape:pageopacity="0"
     inkscape:pageshadow="2"
     inkscape:window-width="720"
     inkscape:window-height="855"
     id="namedview22"
     showgrid="false"
     fit-margin-top="0"
     fit-margin-left="0"
     fit-margin-right="0"
     fit-margin-bottom="0"
     inkscape:zoom="0.87895717"
     inkscape:cx="195.52005"
     inkscape:cy="151.18504"
     inkscape:window-x="720"
     inkscape:window-y="0"
     inkscape:window-maximized="0"
     inkscape:current-layer="svg20"
     inkscape:pagecheckerboard="true" />
  <g
     id="g130">
    <path
       id="path2"
       d="m 24.60201,16.839327 c -1.366478,0.712245 -8.44512,3.622738 -9.952126,4.408398 -1.507007,0.78576 -2.344178,0.778159 -3.53472,0.209043 C 9.9247213,20.887652 2.3917871,17.844832 1.0348107,17.1962 0.35667264,16.872134 0,16.598478 0,16.340026 v -2.588127 c 0,0 9.8069973,-2.134935 11.39022,-2.702951 1.583122,-0.568016 2.132434,-0.58852 3.479708,-0.09502 1.347475,0.4937 9.403716,1.947196 10.735287,2.434896 l -6e-4,2.551519 c 2e-4,0.255852 -0.307063,0.53651 -1.002605,0.898983"
       inkscape:connector-curvature="0"
       style="fill:#912626;stroke-width:0.10002037" />
    <path
       id="path4"
       d="m 24.60151,14.266503 c -1.366378,0.711945 -8.44482,3.622538 -9.951826,4.408098 -1.506907,0.78586 -2.344078,0.778159 -3.53452,0.209043 C 9.9246212,18.314928 2.3919871,15.271608 1.0351108,14.623376 -0.32176553,13.974744 -0.35017132,13.528353 0.98270014,13.006447 2.3155716,12.48434 9.8068973,9.5452418 11.39032,8.9772261 c 1.583122,-0.5678156 2.132334,-0.5885198 3.479608,-0.094819 1.347375,0.4935005 8.383608,3.2941709 9.714979,3.7817699 1.331871,0.488199 1.382982,0.890181 0.0166,1.602326"
       inkscape:connector-curvature="0"
       style="fill:#c6302b;stroke-width:0.10002037" />
    <path
       id="path6"
       d="m 24.60201,12.651574 c -1.366478,0.712346 -8.44512,3.622738 -9.952126,4.408698 -1.507007,0.78546 -2.344178,0.777859 -3.53472,0.208743 C 9.9246212,16.700199 2.3917871,13.657079 1.0348107,13.008447 0.35667264,12.684381 0,12.411125 0,12.152573 V 9.5641457 c 0,0 9.8069973,-2.1348348 11.39022,-2.7028505 1.583122,-0.5680157 2.132434,-0.5886199 3.479708,-0.095019 1.347575,0.4936005 9.403816,1.9467964 10.735287,2.4345958 l -6e-4,2.551819 c 2e-4,0.255752 -0.307063,0.53641 -1.002605,0.898883"
       inkscape:connector-curvature="0"
       style="fill:#912626;stroke-width:0.10002037" />
    <path
       id="path8"
       d="m 24.60151,10.07875 c -1.366378,0.712146 -8.44482,3.622538 -9.951826,4.408398 -1.506907,0.78556 -2.344078,0.777859 -3.53452,0.208743 C 9.9246212,14.127175 2.3919871,11.083955 1.0351108,10.435623 -0.32176553,9.7871911 -0.35017132,9.3407002 0.98270014,8.8185938 2.3155716,8.2967876 9.8069973,5.357489 11.39032,4.7895733 c 1.583122,-0.5679157 2.132334,-0.5885199 3.479608,-0.094919 1.347375,0.4935005 8.383608,3.2939708 9.714979,3.7817702 1.331871,0.4880994 1.382982,0.8901812 0.0166,1.6023255"
       inkscape:connector-curvature="0"
       style="fill:#c6302b;stroke-width:0.10002037" />
    <path
       id="path10"
       d="m 24.60201,8.30859 c -1.366478,0.712145 -8.44512,3.622738 -9.952126,4.408698 -1.507007,0.78556 -2.344178,0.777858 -3.53472,0.208742 C 9.9246212,12.357215 2.3917871,9.3139947 1.0348107,8.6656627 0.35667264,8.3412966 0,8.067941 0,7.8096884 V 5.2211612 c 0,0 9.8069973,-2.1347348 11.39022,-2.7026504 1.583122,-0.5681157 2.132434,-0.5885199 3.479708,-0.095019 1.347575,0.4936005 9.403816,1.9467965 10.735287,2.4345958 l -6e-4,2.5517197 c 2e-4,0.2555521 -0.307063,0.5362092 -1.002605,0.8987831"
       inkscape:connector-curvature="0"
       style="fill:#912626;stroke-width:0.10002037" />
    <path
       id="path12"
       d="m 24.60151,5.735766 c -1.366378,0.712145 -8.44482,3.6227378 -9.951826,4.408298 -1.506907,0.78556 -2.344078,0.777858 -3.53452,0.209042 C 9.9247213,9.7839904 2.3919871,6.7409707 1.0352108,6.0925387 -0.32176553,5.4442066 -0.3500713,4.9976157 0.98270014,4.4756094 2.3155716,3.9537031 9.8069973,1.0148045 11.39032,0.44668883 c 1.583122,-0.56801568 2.132334,-0.58841984 3.479608,-0.0948193 1.347375,0.49360052 8.383608,3.29407087 9.714979,3.78187017 1.331871,0.4876994 1.382982,0.8898813 0.0166,1.6020263"
       inkscape:connector-curvature="0"
       style="fill:#c6302b;stroke-width:0.10002037" />
    <path
       id="path14"
       d="M 15.931545,3.2179532 13.730096,3.4464998 13.237296,4.6323413 12.441334,3.3090718 9.8993161,3.0806253 11.796102,2.3965859 11.226986,1.3465721 13.002848,2.0411135 14.676989,1.4930019 14.224497,2.578723 15.931545,3.2179532 M 13.105869,8.9709249 8.9973324,7.2668778 14.884531,6.3631938 13.105869,8.9709249 M 7.4097091,3.8770875 c 1.7378539,0 3.1466409,0.5461112 3.1466409,1.2196484 0,0.6737372 -1.408787,1.2197484 -3.1466409,1.2197484 -1.737854,0 -3.1466409,-0.5461113 -3.1466409,-1.2197484 0,-0.6735372 1.4087869,-1.2196484 3.1466409,-1.2196484"
       inkscape:connector-curvature="0"
       style="fill:#ffffff;stroke-width:0.10002037" />
    <path
       id="path16"
       d="m 18.533274,3.5421192 3.48431,1.3768805 -3.481309,1.3755801 -0.003,-2.7525606"
       inkscape:connector-curvature="0"
       style="fill:#621b1c;stroke-width:0.10002037" />
    <path
       id="path18"
       d="m 14.678489,5.0669298 3.854785,-1.5248106 0.003,2.7524606 -0.377977,0.1478301 -3.479809,-1.3754801"
       inkscape:connector-curvature="0"
       style="fill:#9a2928;stroke-width:0.10002037" />
  </g>
</svg>
