<?xml version="1.0" encoding="UTF-8" standalone="no"?>
<!-- Created with Inkscape (http://www.inkscape.org/) -->

<svg
   xmlns:dc="http://purl.org/dc/elements/1.1/"
   xmlns:cc="http://creativecommons.org/ns#"
   xmlns:rdf="http://www.w3.org/1999/02/22-rdf-syntax-ns#"
   xmlns:svg="http://www.w3.org/2000/svg"
   xmlns="http://www.w3.org/2000/svg"
   xmlns:sodipodi="http://sodipodi.sourceforge.net/DTD/sodipodi-0.dtd"
   xmlns:inkscape="http://www.inkscape.org/namespaces/inkscape"
   width="45.806438mm"
   height="23.975451mm"
   viewBox="0 0 45.806438 23.975451"
   version="1.1"
   id="svg3783"
   inkscape:version="0.92.5 (2060ec1f9f, 2020-04-08)"
   sodipodi:docname="stream.svg">
  <defs
     id="defs3777" />
  <sodipodi:namedview
     id="base"
     pagecolor="#ffffff"
     bordercolor="#666666"
     borderopacity="1.0"
     inkscape:pageopacity="0.0"
     inkscape:pageshadow="2"
     inkscape:zoom="0.35"
     inkscape:cx="37.555272"
     inkscape:cy="1.9776327"
     inkscape:document-units="mm"
     inkscape:current-layer="layer1"
     showgrid="false"
     inkscape:window-width="823"
     inkscape:window-height="814"
     inkscape:window-x="2062"
     inkscape:window-y="40"
     inkscape:window-maximized="0"
     fit-margin-top="0"
     fit-margin-left="0"
     fit-margin-right="0"
     fit-margin-bottom="0" />
  <metadata
     id="metadata3780">
    <rdf:RDF>
      <cc:Work
         rdf:about="">
        <dc:format>image/svg+xml</dc:format>
        <dc:type
           rdf:resource="http://purl.org/dc/dcmitype/StillImage" />
        <dc:title></dc:title>
      </cc:Work>
    </rdf:RDF>
  </metadata>
  <g
     inkscape:label="Layer 1"
     inkscape:groupmode="layer"
     id="layer1"
     transform="translate(-47.515882,-125.38113)">
    <g
       id="g4705">
      <path
         inkscape:connector-curvature="0"
         id="path3850"
         d="m 89.088992,148.96157 c -0.65485,-0.21832 -1.36922,-0.46652 -1.5875,-0.55157 -0.21829,-0.085 -0.48618,-0.17979 -0.59532,-0.21054 -0.10914,-0.0308 -0.2282,-0.0799 -0.26458,-0.10925 -0.0364,-0.0293 -0.26929,-0.0924 -0.51758,-0.14025 -0.47581,-0.0916 -2.97418,-0.86315 -3.64961,-1.12703 -0.21828,-0.0853 -0.48617,-0.18022 -0.59531,-0.21097 -0.10914,-0.0308 -0.25797,-0.0857 -0.33073,-0.12208 -0.65836,-0.32918 -2.58489,-0.57974 -2.74095,-0.35648 -0.0932,0.13334 -0.51295,0.50622 -0.93275,0.82863 -0.7526,0.57798 -0.88577,0.58619 -9.50863,0.58619 -8.4597,0 -8.77191,-0.0182 -9.55897,-0.55751 -0.66,-0.45224 -1.53851,-1.83607 -1.87165,-2.94822 -0.0327,-0.10914 -0.0892,-0.25797 -0.12559,-0.33073 -0.0364,-0.0728 -0.0959,-0.25135 -0.13229,-0.39688 -0.0364,-0.14552 -0.0992,-0.35388 -0.13952,-0.46302 -0.10842,-0.29323 -0.19238,-0.68494 -0.22684,-1.05833 -0.0231,-0.25004 -1.09966,-0.33073 -4.41291,-0.33073 h -4.38238 l 0.0829,-0.85989 0.0829,-0.8599 4.0349,-0.073 4.0349,-0.073 v -0.64768 -0.64768 l -4.0349,-0.073 -4.0349,-0.073 -0.0829,-0.8599 -0.0829,-0.85989 h 4.1178 4.11781 v -0.79375 -0.79375 h -4.10105 -4.10104 v -0.79375 c 0,-0.43656 0.0893,-0.77965 0.19844,-0.76242 0.10914,0.0172 2.01788,0.0172 4.24164,0 3.34358,-0.0259 4.06465,-0.10001 4.16719,-0.42821 0.0682,-0.21828 0.2014,-0.60523 0.29602,-0.85989 0.0946,-0.25466 0.21355,-0.67536 0.26427,-0.93488 0.0507,-0.25952 0.27139,-0.74527 0.49035,-1.07945 0.21896,-0.33418 0.31832,-0.68739 0.2208,-0.78492 -0.0975,-0.0975 -0.0384,-0.17732 0.13136,-0.17732 0.16978,0 0.30868,-0.11365 0.30868,-0.25255 0,-0.13891 0.29985,-0.55241 0.66634,-0.91889 l 0.66633,-0.66634 h 9.12778 9.12778 l 0.78924,0.82587 0.78924,0.82586 1.78592,-0.49319 c 0.98225,-0.27125 1.87521,-0.51216 1.98435,-0.53536 0.10914,-0.0232 0.25797,-0.0719 0.33073,-0.10831 0.0728,-0.0364 0.25136,-0.0959 0.39688,-0.13229 0.14552,-0.0364 0.32411,-0.0959 0.39687,-0.1323 0.0728,-0.0364 0.22159,-0.0913 0.33073,-0.12207 0.10914,-0.0308 0.37703,-0.12589 0.59531,-0.21141 0.60545,-0.2372 2.35736,-0.7656 2.86006,-0.86263 0.24598,-0.0475 0.477,-0.11031 0.51338,-0.13963 0.0364,-0.0293 0.15544,-0.0782 0.26458,-0.10856 0.10914,-0.0304 0.54783,-0.1995 0.97485,-0.37581 0.86707,-0.358 1.86728,-0.30444 1.87347,0.10032 0.002,0.14552 0.0926,0.40382 0.20088,0.57399 0.18216,0.28635 -0.82229,0.76487 -2.13894,1.019 -0.24598,0.0475 -0.477,0.11031 -0.51338,0.13963 -0.0364,0.0293 -0.15544,0.0782 -0.26459,0.10856 -0.10914,0.0304 -0.49609,0.17893 -0.85989,0.3301 -0.3638,0.15116 -1.07818,0.37259 -1.5875,0.49206 -1.32764,0.3114 -1.31015,0.30684 -1.45521,0.37937 -0.0728,0.0364 -0.25135,0.0959 -0.39687,0.13229 -0.14552,0.0364 -0.32412,0.0959 -0.39688,0.13229 -0.0728,0.0364 -0.22159,0.0913 -0.33073,0.12207 -0.10914,0.0308 -0.37703,0.1257 -0.59531,0.21098 -0.21828,0.0853 -1.02195,0.35246 -1.78594,0.59373 -0.76398,0.24127 -1.38777,0.5184 -1.3862,0.61584 0.002,0.0975 0.18386,0.77249 0.40508,1.50009 0.22122,0.72761 0.44882,1.97776 0.50578,2.77813 l 0.10357,1.45521 6.23823,0.0709 6.23823,0.0709 v 0.91647 0.91646 l -6.28385,0.0709 c -5.28525,0.0597 -6.27083,0.13106 -6.20184,0.44928 0.13398,0.61806 -0.48354,3.84968 -0.88261,4.61889 -0.35088,0.67632 -0.33335,0.72541 0.34784,0.97419 0.39453,0.14409 0.89593,0.33746 1.11421,0.42972 0.21828,0.0923 0.48617,0.1929 0.59531,0.22366 0.10914,0.0308 0.2282,0.0799 0.26459,0.10924 0.0364,0.0293 0.24473,0.0903 0.46302,0.1354 0.80068,0.16559 3.5797,1.00526 3.83645,1.15916 0.14553,0.0872 0.4082,0.18041 0.58373,0.20707 0.34077,0.0518 2.85594,0.83017 3.51732,1.08857 0.21828,0.0853 0.48617,0.16533 0.59531,0.1779 0.28636,0.033 0.31453,0.21178 0.13907,0.88275 -0.18062,0.6907 -0.62912,0.72095 -2.32188,0.15658 z m -28.39028,-2.41673 c 0.41452,-0.26351 1.92202,-3.49269 2.08249,-4.46085 0.0687,-0.41441 0.19294,-1.08774 0.27611,-1.49629 0.35169,-1.72739 0.12085,-6.14808 -0.42404,-8.12073 -0.30146,-1.09141 -0.56429,-2.13321 -0.58405,-2.31511 -0.0198,-0.1819 -0.14217,-0.33073 -0.27203,-0.33073 -0.12985,0 -0.16252,-0.11906 -0.0726,-0.26458 0.0899,-0.14552 0.0374,-0.26458 -0.11668,-0.26458 -0.1541,0 -0.28019,-0.13571 -0.28019,-0.30156 0,-0.43212 -0.83154,-1.00308 -1.47524,-1.01294 -0.78077,-0.012 -1.91509,1.40603 -2.21562,2.76971 -0.0321,0.14552 -0.14368,0.38364 -0.24802,0.52916 -0.10434,0.14552 -0.22153,0.64468 -0.26043,1.10924 -0.0697,0.83305 -0.0532,0.84576 1.2044,0.92604 1.16203,0.0742 1.27511,0.14005 1.27511,0.74285 0,0.60934 -0.11465,0.67188 -1.4552,0.79375 -1.3526,0.12296 -1.46112,0.18359 -1.53893,0.85989 -0.0824,0.71581 -0.0601,0.72761 1.37345,0.72761 1.58767,0 1.8878,0.22056 1.64055,1.20566 -0.14736,0.58715 -0.29522,0.64642 -1.61241,0.64642 -1.37045,0 -1.45016,0.0364 -1.45016,0.66146 0,0.6251 0.0797,0.66146 1.45016,0.66146 1.31719,0 1.46505,0.0593 1.61241,0.64642 0.23929,0.95338 -0.0487,1.20566 -1.37622,1.20566 -1.19128,0 -1.19269,0.001 -1.08599,0.8599 0.16836,1.35518 0.81604,2.87798 1.63016,3.83278 0.51213,0.60062 1.33009,0.76624 1.92295,0.38936 z m 17.16392,-0.38568 c 0.45235,-0.52727 1.17487,-1.83198 1.31867,-2.38125 0.0286,-0.10915 0.0759,-0.22821 0.10527,-0.26459 0.27836,-0.34533 0.85672,-4.49819 0.85672,-6.15156 0,-1.65337 -0.57836,-5.80623 -0.85672,-6.15156 -0.0293,-0.0364 -0.0757,-0.15545 -0.10313,-0.26459 -0.0274,-0.10914 -0.33193,-0.75992 -0.67672,-1.44617 -0.43436,-0.86452 -0.86796,-1.33177 -1.4118,-1.52136 -0.81292,-0.28338 -15.04394,-0.39949 -15.31845,-0.12498 -0.0817,0.0817 0.14671,0.67706 0.50769,1.32292 0.36097,0.64585 0.57203,1.17428 0.46901,1.17428 -0.10302,0 -0.0391,0.17859 0.14207,0.39688 0.18115,0.21828 0.24068,0.39687 0.13229,0.39687 -0.1084,0 -0.0739,0.14883 0.0767,0.33073 1.05893,1.27922 1.05893,10.49474 0,11.77396 -0.15058,0.1819 -0.19264,0.33073 -0.0935,0.33073 0.0992,0 0.0858,0.14883 -0.0297,0.33073 -0.1155,0.1819 -0.21768,0.39026 -0.22706,0.46302 -0.0746,0.57885 -0.47646,1.32291 -0.71443,1.32291 -0.15997,0 -0.21251,0.0784 -0.11676,0.1741 0.0957,0.0958 0.0415,0.33388 -0.12059,0.52916 -0.24541,0.2957 1.03007,0.35508 7.6275,0.35508 7.88788,0 7.92439,-0.003 8.43292,-0.59531 z"
         style="fill:#ff0000;fill-opacity:1;stroke-width:0.26458335" />
    </g>
  </g>
</svg>
