<?xml version="1.0" encoding="UTF-8"?><svg xmlns="http://www.w3.org/2000/svg" width="820" height="196" version="1.0" shape-rendering="geometricPrecision"><defs><style type="text/css">@font-face {
  font-family: sans-serif;
}</style><filter id="shadowBlur" x="0" y="0" width="200%" height="200%"><feOffset in="SourceGraphic" dx="3.0003002" dy="3.0003002" result="offOut"></feOffset><feGaussianBlur in="offOut" stdDeviation="3"></feGaussianBlur></filter></defs><g stroke-width="1" stroke-linecap="square" stroke-linejoin="round"><rect x="0" y="0" width="820" height="196" style="fill: #ffffff"></rect><path stroke="#000000" stroke-width="1.0" stroke-linecap="round" stroke-linejoin="round" fill="#99dd99" d="M235.0 35.0 L235.0 63.0 L95.0 63.0 L95.0 35.0 z"></path><path stroke="#000000" stroke-width="1.0" stroke-linecap="round" stroke-linejoin="round" fill="#ee3322" d="M375.0 35.0 L375.0 63.0 L235.0 63.0 L235.0 35.0 z"></path><path stroke="#000000" stroke-width="1.0" stroke-linecap="round" stroke-linejoin="round" fill="white" d="M375.0 35.0 L375.0 63.0 L515.0 63.0 L515.0 35.0 z"></path><path stroke="#000000" stroke-width="1.0" stroke-linecap="round" stroke-linejoin="round" fill="white" d="M655.0 35.0 L655.0 63.0 L515.0 63.0 L515.0 35.0 z"></path><path stroke="#000000" stroke-width="1.0" stroke-linecap="round" stroke-linejoin="round" fill="white" d="M655.0 35.0 L655.0 63.0 L795.0 63.0 L795.0 35.0 z"></path><path stroke="#000000" stroke-width="1.0" stroke-linecap="round" stroke-linejoin="round" fill="#5555bb" d="M235.0 161.0 L235.0 133.0 L95.0 133.0 L95.0 161.0 z"></path><path stroke="#000000" stroke-width="1.0" stroke-linecap="round" stroke-linejoin="round" fill="white" d="M375.0 133.0 L375.0 161.0 L235.0 161.0 L235.0 133.0 z"></path><path stroke="#000000" stroke-width="1.0" stroke-linecap="round" stroke-linejoin="round" fill="white" d="M375.0 133.0 L375.0 161.0 L515.0 161.0 L515.0 133.0 z"></path><path stroke="#000000" stroke-width="1.0" stroke-linecap="round" stroke-linejoin="round" fill="white" d="M655.0 133.0 L655.0 161.0 L515.0 161.0 L515.0 133.0 z"></path><path stroke="#000000" stroke-width="1.0" stroke-linecap="round" stroke-linejoin="round" fill="white" d="M795.0 133.0 L795.0 161.0 L655.0 161.0 L655.0 133.0 z"></path><path stroke="#000000" stroke-width="1.0" stroke-linecap="round" stroke-linejoin="round" fill="none" d="M175.0 119.0 L175.0 91.0 L725.0 91.0 L725.0 77.0 "></path><path stroke="none" stroke-width="1.0" stroke-linecap="round" stroke-linejoin="round" fill="#000000" d="M170.0 112.0 L175.0 126.0 L180.0 112.0 z"></path><text x="23" y="54" font-family="sans-serif" font-size="15" stroke="none" fill="#000000"><![CDATA[queue∶1]]></text><text x="23" y="152" font-family="sans-serif" font-size="15" stroke="none" fill="#000000"><![CDATA[queue∶2]]></text><text x="292" y="54" font-family="sans-serif" font-size="15" stroke="none" fill="#000000"><![CDATA[red]]></text><text x="142" y="54" font-family="sans-serif" font-size="15" stroke="none" fill="#000000"><![CDATA[green]]></text><text x="153" y="152" font-family="sans-serif" font-size="15" stroke="none" fill="#ffffff"><![CDATA[blue]]></text></g></svg>