<?xml version="1.0" encoding="UTF-8" standalone="no"?>
<svg
   xmlns:dc="http://purl.org/dc/elements/1.1/"
   xmlns:cc="http://creativecommons.org/ns#"
   xmlns:rdf="http://www.w3.org/1999/02/22-rdf-syntax-ns#"
   xmlns:svg="http://www.w3.org/2000/svg"
   xmlns="http://www.w3.org/2000/svg"
   xmlns:sodipodi="http://sodipodi.sourceforge.net/DTD/sodipodi-0.dtd"
   xmlns:inkscape="http://www.inkscape.org/namespaces/inkscape"
   version="1.1"
   viewBox="0 0 696.23566 272.28156"
   stroke-miterlimit="10"
   id="svg61"
   sodipodi:docname="diagram.svg"
   width="696.23566"
   height="272.28156"
   style="fill:none;stroke:none;stroke-linecap:square;stroke-miterlimit:10"
   inkscape:version="0.92.2 5c3e80d, 2017-08-06">
  <metadata
     id="metadata67">
    <rdf:RDF>
      <cc:Work
         rdf:about="">
        <dc:format>image/svg+xml</dc:format>
        <dc:type
           rdf:resource="http://purl.org/dc/dcmitype/StillImage" />
        <dc:title></dc:title>
      </cc:Work>
    </rdf:RDF>
  </metadata>
  <defs
     id="defs65" />
  <sodipodi:namedview
     pagecolor="#ffffff"
     bordercolor="#666666"
     borderopacity="1"
     objecttolerance="10"
     gridtolerance="10"
     guidetolerance="10"
     inkscape:pageopacity="0"
     inkscape:pageshadow="2"
     inkscape:window-width="1440"
     inkscape:window-height="855"
     id="namedview63"
     showgrid="false"
     fit-margin-top="0"
     fit-margin-left="0"
     fit-margin-right="0"
     fit-margin-bottom="0"
     inkscape:zoom="0.9"
     inkscape:cx="321.49626"
     inkscape:cy="153.72795"
     inkscape:window-x="0"
     inkscape:window-y="0"
     inkscape:window-maximized="0"
     inkscape:current-layer="svg61" />
  <clipPath
     id="p2.0">
    <path
       d="M 0,0 H 1280 V 720 H 0 Z"
       id="path2"
       inkscape:connector-curvature="0"
       style="clip-rule:nonzero" />
  </clipPath>
  <g
     id="g916"
     transform="translate(-650.32073,-241.44639)">
    <path
       d="m 835.02267,377.58717 v 0 c 0,-75.18848 60.95227,-136.14078 136.14075,-136.14078 v 0 c 36.10678,0 70.73468,14.34338 96.26608,39.87472 25.5313,25.53135 39.8747,60.15927 39.8747,96.26606 v 0 c 0,75.18847 -60.9524,136.14078 -136.14079,136.14078 v 0 c -75.18848,0 -136.14075,-60.9523 -136.14075,-136.14078 z"
       id="path22"
       inkscape:connector-curvature="0"
       style="fill:#c00000;fill-rule:evenodd" />
    <path
       d="m 888.00351,260.29661 h 180.22839 v 50.06186 H 888.00351 Z"
       id="path24"
       inkscape:connector-curvature="0"
       style="fill:#000000;fill-opacity:0;fill-rule:evenodd" />
    <path
       d="m 918.36964,297.01662 -1.3125,-3.60938 h -9.14063 l -1.34375,3.60938 h -5.1875 l 8.25,-21.34375 h 5.70313 l 8.21875,21.34375 z m -5.89063,-16.79688 -3.32812,9.1875 h 6.65625 z m 19.30994,23.0625 q -2.01562,0 -3.60937,-0.51562 -1.57813,-0.5 -3.04688,-1.78125 l 1.8125,-2.9375 q 1.73438,1.90625 4.84375,1.90625 2.01563,0 3.125,-1.03125 1.125,-1.01563 1.125,-2.85938 v -1.57812 q -1.95312,2.4375 -4.76562,2.4375 -3.10938,0 -4.96875,-2.125 -1.84375,-2.14063 -1.84375,-5.75 0,-3.57813 1.82812,-5.71875 1.84375,-2.15625 4.98438,-2.15625 2.90625,0 4.76562,2.375 v -1.98438 h 4.09375 v 14.39063 q 0,3.53125 -2.17187,5.42187 -2.17188,1.90625 -6.17188,1.90625 z m 0.76563,-9.98437 q 1.01562,0 1.98437,-0.5 0.98438,-0.51563 1.5,-1.25 v -5 q -0.51562,-0.76563 -1.5,-1.25 -0.96875,-0.5 -1.98437,-0.5 -1.73438,0 -2.82813,1.125 -1.07812,1.10937 -1.07812,3.125 0,2.01562 1.07812,3.14062 1.09375,1.10938 2.82813,1.10938 z m 17.9544,9.98437 q -2.01562,0 -3.60937,-0.51562 -1.57813,-0.5 -3.04688,-1.78125 l 1.8125,-2.9375 q 1.73438,1.90625 4.84375,1.90625 2.01563,0 3.125,-1.03125 1.125,-1.01563 1.125,-2.85938 v -1.57812 q -1.95312,2.4375 -4.76562,2.4375 -3.10938,0 -4.96875,-2.125 -1.84375,-2.14063 -1.84375,-5.75 0,-3.57813 1.82812,-5.71875 1.84375,-2.15625 4.98438,-2.15625 2.90625,0 4.76562,2.375 v -1.98438 h 4.09375 v 14.39063 q 0,3.53125 -2.17187,5.42187 -2.17188,1.90625 -6.17188,1.90625 z m 0.76563,-9.98437 q 1.01562,0 1.98437,-0.5 0.98438,-0.51563 1.5,-1.25 v -5 q -0.51562,-0.76563 -1.5,-1.25 -0.96875,-0.5 -1.98437,-0.5 -1.73438,0 -2.82813,1.125 -1.07812,1.10937 -1.07812,3.125 0,2.01562 1.07812,3.14062 1.09375,1.10938 2.82813,1.10938 z m 11.61066,3.71875 v -15.45313 h 4.0625 v 2.10938 q 0.82812,-1.03125 2.15625,-1.76563 1.32812,-0.73437 2.78125,-0.73437 v 3.96875 l -1.125,-0.0937 q -1.09375,0 -2.20313,0.51562 -1.09375,0.51563 -1.60937,1.25 v 10.20313 z m 18.78564,0.39062 q -3.65625,0 -5.95312,-2.25 -2.29688,-2.26562 -2.29688,-5.89062 0,-3.45313 2.28125,-5.76563 2.28125,-2.32812 5.71875,-2.32812 3.42188,0 5.57813,2.35937 2.15625,2.34375 2.15625,6.15625 v 0.89063 h -11.48438 q 0.1875,1.48437 1.32813,2.54687 1.14062,1.04688 3.125,1.04688 0.95312,0 2.14062,-0.39063 1.1875,-0.40625 1.98438,-1.15625 l 1.78125,2.625 q -1.14063,1.0625 -2.84375,1.60938 -1.6875,0.54687 -3.51563,0.54687 z m 3.54688,-9.57812 q -0.0937,-1.53125 -1.15625,-2.46875 -1.04688,-0.95313 -2.64063,-0.95313 -1.60937,0 -2.64062,0.98438 -1.01563,0.96875 -1.17188,2.4375 z m 13.22729,15.45312 q -2.01562,0 -3.60937,-0.51562 -1.57813,-0.5 -3.04688,-1.78125 l 1.8125,-2.9375 q 1.73438,1.90625 4.84375,1.90625 2.01562,0 3.12502,-1.03125 1.125,-1.01563 1.125,-2.85938 v -1.57812 q -1.9531,2.4375 -4.76564,2.4375 -3.10938,0 -4.96875,-2.125 -1.84375,-2.14063 -1.84375,-5.75 0,-3.57813 1.82812,-5.71875 1.84375,-2.15625 4.98438,-2.15625 2.90624,0 4.76564,2.375 v -1.98438 h 4.0937 v 14.39063 q 0,3.53125 -2.1718,5.42187 -2.1719,1.90625 -6.17192,1.90625 z m 0.76563,-9.98437 q 1.01559,0 1.98439,-0.5 0.9844,-0.51563 1.5,-1.25 v -5 q -0.5156,-0.76563 -1.5,-1.25 -0.9688,-0.5 -1.98439,-0.5 -1.73438,0 -2.82813,1.125 -1.07812,1.10937 -1.07812,3.125 0,2.01562 1.07812,3.14062 1.09375,1.10938 2.82813,1.10938 z m 20.89189,3.71875 v -1.59375 q -1.7031,1.98437 -4.8906,1.98437 -2.25,0 -3.8125,-1.42187 -1.5625,-1.4375 -1.5625,-3.70313 0,-2.28125 1.4844,-3.64062 1.4843,-1.35938 3.8906,-1.35938 3.3281,0 4.8906,1.89063 v -2.07813 q 0,-1.1875 -0.9375,-1.89062 -0.9219,-0.70313 -2.4531,-0.70313 -2.5625,0 -4.5156,1.82813 l -1.5313,-2.71875 q 2.8125,-2.4375 6.75,-2.4375 3.2656,0 5,1.53125 1.75,1.51562 1.75,4.32812 v 9.98438 z m -3.2656,-2.375 q 2.2344,0 3.2656,-1.34375 v -1.90625 q -1.0312,-1.34375 -3.2656,-1.34375 -1.2188,0 -2.0625,0.60937 -0.8438,0.59375 -0.8438,1.71875 0,1.09375 0.8438,1.6875 0.8437,0.57813 2.0625,0.57813 z m 16.5479,2.76562 q -4.3906,0 -4.3906,-4.23437 v -8.0625 h -2.5625 v -3.54688 h 2.5625 v -4.23437 h 4.0937 v 4.23437 h 3.1407 v 3.54688 h -3.1407 v 6.98437 q 0,0.73438 0.3594,1.21875 0.375,0.46875 1.0469,0.46875 0.9687,0 1.4219,-0.45312 l 0.8593,3.07812 q -1.0625,1 -3.3906,1 z m 12.8942,0 q -3.6563,0 -5.9532,-2.25 -2.2968,-2.26562 -2.2968,-5.89062 0,-3.45313 2.2812,-5.76563 2.2813,-2.32812 5.7188,-2.32812 3.4218,0 5.5781,2.35937 2.1562,2.34375 2.1562,6.15625 v 0.89063 h -11.4843 q 0.1875,1.48437 1.3281,2.54687 1.1406,1.04688 3.125,1.04688 0.9531,0 2.1406,-0.39063 1.1875,-0.40625 1.9844,-1.15625 l 1.7812,2.625 q -1.1406,1.0625 -2.8437,1.60938 -1.6875,0.54687 -3.5156,0.54687 z m 3.5468,-9.57812 q -0.094,-1.53125 -1.1562,-2.46875 -1.0469,-0.95313 -2.6406,-0.95313 -1.6094,0 -2.6407,0.98438 -1.0156,0.96875 -1.1718,2.4375 z"
       id="path26"
       inkscape:connector-curvature="0"
       style="fill:#ffffff;fill-rule:nonzero" />
    <path
       d="m 650.32074,377.58717 v 0 c 0,-75.18848 60.9523,-136.14078 136.14078,-136.14078 v 0 c 36.10678,0 70.73474,14.34338 96.26605,39.87472 25.53137,25.53135 39.87469,60.15927 39.87469,96.26606 v 0 c 0,75.18847 -60.95227,136.14078 -136.14075,136.14078 v 0 c -75.18848,0 -136.14078,-60.9523 -136.14078,-136.14078 z"
       id="path28"
       inkscape:connector-curvature="0"
       style="fill:#2e3192;fill-opacity:0.64313725;fill-rule:evenodd" />
    <path
       d="m 726.88647,260.29661 h 123.60544 v 44.90564 H 726.88647 Z"
       id="path30"
       inkscape:connector-curvature="0"
       style="fill:#000000;fill-opacity:0;fill-rule:evenodd" />
    <path
       d="m 742.5896,297.40724 q -5.70313,0 -9.03125,-3.40625 l 2.46875,-3.45313 q 1.10937,1.1875 2.84375,2.04688 1.73437,0.84375 3.9375,0.84375 1.89062,0 2.79687,-0.71875 0.90625,-0.73438 0.90625,-1.65625 0,-0.95313 -1.0625,-1.5 -1.04687,-0.54688 -5.07812,-1.5 -6.14063,-1.48438 -6.14063,-6.21875 0,-2.75 2.21875,-4.60938 2.23438,-1.875 5.875,-1.875 5.09375,0 8.32813,2.96875 l -2.53125,3.32813 q -2.53125,-2.34375 -6.20313,-2.34375 -1.48437,0 -2.26562,0.59375 -0.78125,0.59375 -0.78125,1.5625 0,0.82812 0.90625,1.29687 0.92187,0.45313 2.29687,0.78125 l 2.9375,0.73438 q 6.10938,1.5625 6.10938,6.26562 0,3.17188 -2.26563,5.01563 -2.26562,1.84375 -6.26562,1.84375 z m 18.77817,0 q -3.65625,0 -5.95313,-2.25 -2.29687,-2.26563 -2.29687,-5.89063 0,-3.45312 2.28125,-5.76562 2.28125,-2.32813 5.71875,-2.32813 3.42187,0 5.57812,2.35938 2.15625,2.34375 2.15625,6.15625 v 0.89062 h -11.48437 q 0.1875,1.48438 1.32812,2.54688 1.14063,1.04687 3.125,1.04687 0.95313,0 2.14063,-0.39062 1.1875,-0.40625 1.98437,-1.15625 l 1.78125,2.625 q -1.14062,1.0625 -2.84375,1.60937 -1.6875,0.54688 -3.51562,0.54688 z m 3.54687,-9.57813 q -0.0937,-1.53125 -1.15625,-2.46875 -1.04687,-0.95312 -2.64062,-0.95312 -1.60938,0 -2.64063,0.98437 -1.01562,0.96875 -1.17187,2.4375 z m 16.16477,9.1875 v -1.59375 q -1.70313,1.98438 -4.89063,1.98438 -2.25,0 -3.8125,-1.42188 -1.5625,-1.4375 -1.5625,-3.70312 0,-2.28125 1.48438,-3.64063 1.48437,-1.35937 3.89062,-1.35937 3.32813,0 4.89063,1.89062 v -2.07812 q 0,-1.1875 -0.9375,-1.89063 -0.92188,-0.70312 -2.45313,-0.70312 -2.5625,0 -4.51562,1.82812 l -1.53125,-2.71875 q 2.8125,-2.4375 6.75,-2.4375 3.26562,0 5,1.53125 1.75,1.51563 1.75,4.32813 v 9.98437 z m -3.26563,-2.375 q 2.23438,0 3.26563,-1.34375 v -1.90625 q -1.03125,-1.34375 -3.26563,-1.34375 -1.21875,0 -2.0625,0.60938 -0.84375,0.59375 -0.84375,1.71875 0,1.09375 0.84375,1.6875 0.84375,0.57812 2.0625,0.57812 z m 11.36041,2.375 v -15.45312 h 4.0625 v 2.10937 q 0.82813,-1.03125 2.15625,-1.76562 1.32813,-0.73438 2.78125,-0.73438 v 3.96875 l -1.125,-0.0937 q -1.09375,0 -2.20312,0.51563 -1.09375,0.51562 -1.60938,1.25 v 10.20312 z m 18.72315,0.39063 q -3.65625,0 -5.92188,-2.29688 -2.26562,-2.3125 -2.26562,-5.84375 0,-3.48437 2.26562,-5.78125 2.26563,-2.3125 5.92188,-2.3125 2.35937,0 3.84375,0.875 1.5,0.85938 2.26562,1.90625 l -2.65625,2.5 q -1.125,-1.65625 -3.26562,-1.65625 -1.85938,0 -3.03125,1.23438 -1.15625,1.21875 -1.15625,3.23437 0,2.01563 1.15625,3.26563 1.17187,1.25 3.03125,1.25 2.07812,0 3.26562,-1.65625 l 2.65625,2.45312 q -0.76562,1.09375 -2.26562,1.96875 -1.48438,0.85938 -3.84375,0.85938 z m 19.23367,-0.39063 v -9.40625 q 0,-2.8125 -2.89062,-2.8125 -2.10938,0 -3.51563,1.8125 v 10.40625 h -4.0625 v -21.34375 h 4.0625 v 7.90625 q 0.73438,-0.90625 2.125,-1.65625 1.39063,-0.75 3.3125,-0.75 2.5625,0 3.79688,1.29688 1.23437,1.29687 1.23437,3.57812 v 10.96875 z"
       id="path32"
       inkscape:connector-curvature="0"
       style="fill:#ffffff;fill-rule:nonzero" />
    <path
       d="m 816.65324,355.3437 h 118.74792 v 58.66678 H 816.65324 Z"
       id="path34"
       inkscape:connector-curvature="0"
       style="fill:#000000;fill-opacity:0;fill-rule:evenodd" />
    <path
       d="m 843.92587,392.45433 q -4.85938,0 -8,-3.10937 -3.125,-3.10938 -3.125,-7.9375 0,-4.79688 3.125,-7.92188 3.14062,-3.125 8,-3.125 4.90625,0 8.03125,3.125 3.14062,3.125 3.14062,7.92188 0,4.57812 -2.78125,7.54687 l 1.5625,1.82813 -3.15625,2.59375 -1.73437,-1.98438 q -2.3125,1.0625 -5.0625,1.0625 z m 0,-4.03125 q 1.125,0 2.25,-0.35937 l -2.34375,-2.75 3.14062,-2.59375 2.35938,2.78125 q 1.09375,-1.79688 1.09375,-4.09375 0,-3.04688 -1.78125,-5.01563 -1.76563,-1.98437 -4.71875,-1.98437 -2.9375,0 -4.70313,1.98437 -1.75,1.96875 -1.75,5.01563 0,3.07812 1.78125,5.04687 1.79688,1.96875 4.67188,1.96875 z m 24.71442,3.64063 v -1.95313 q -2.07813,2.34375 -5.4375,2.34375 -2.5625,0 -3.78125,-1.29687 -1.21875,-1.29688 -1.21875,-3.57813 v -10.96875 h 4.0625 v 9.375 q 0,2.84375 2.84375,2.84375 2.09375,0 3.53125,-1.75 v -10.46875 h 4.0625 v 15.45313 z m 15.35614,0.39062 q -3.65625,0 -5.95313,-2.25 -2.29687,-2.26562 -2.29687,-5.89062 0,-3.45313 2.28125,-5.76563 2.28125,-2.32812 5.71875,-2.32812 3.42187,0 5.57812,2.35937 2.15625,2.34375 2.15625,6.15625 v 0.89063 h -11.48437 q 0.1875,1.48437 1.32812,2.54687 1.14063,1.04688 3.125,1.04688 0.95313,0 2.14063,-0.39063 1.1875,-0.40625 1.98437,-1.15625 l 1.78125,2.625 q -1.14062,1.0625 -2.84375,1.60938 -1.6875,0.54687 -3.51562,0.54687 z m 3.54687,-9.57812 q -0.0937,-1.53125 -1.15625,-2.46875 -1.04687,-0.95313 -2.64062,-0.95313 -1.60938,0 -2.64063,0.98438 -1.01562,0.96875 -1.17187,2.4375 z m 6.88355,9.1875 v -15.45313 h 4.0625 v 2.10938 q 0.82812,-1.03125 2.15625,-1.76563 1.32812,-0.73437 2.78125,-0.73437 v 3.96875 l -1.125,-0.0937 q -1.09375,0 -2.20313,0.51562 -1.09375,0.51563 -1.60937,1.25 v 10.20313 z m 11.58252,2.40625 q 0.51562,0.25 1.28125,0.25 1.625,0 2.14062,-1.125 l 0.57813,-1.3125 -6.26563,-15.67188 h 4.34375 l 4.03125,10.75 4.03125,-10.75 h 4.39063 l -7.26563,17.98438 q -0.85937,2.17187 -2.375,2.9375 -1.5,0.76562 -3.48437,0.79687 -1.10938,0 -2.01563,-0.21875 z"
       id="path36"
       inkscape:connector-curvature="0"
       style="fill:#ffffff;fill-rule:nonzero" />
    <path
       d="m 1144.7296,407.96852 v 0 c 0,-55.73294 45.1805,-100.91339 100.9134,-100.91339 v 0 c 26.764,0 52.4317,10.6319 71.3566,29.55685 18.9249,18.92493 29.5568,44.59262 29.5568,71.35654 v 0 c 0,55.73291 -45.1804,100.91336 -100.9134,100.91336 v 0 c -55.7329,0 -100.9134,-45.18045 -100.9134,-100.91336 z"
       id="path38"
       inkscape:connector-curvature="0"
       style="fill:#a3a4b5;fill-opacity:0.8;fill-rule:evenodd" />
    <path
       d="m 1227.8951,367.33195 -1.3125,-3.60938 h -9.1406 l -1.3438,3.60938 h -5.1875 l 8.25,-21.34375 h 5.7032 l 8.2187,21.34375 z m -5.8906,-16.79688 -3.3281,9.1875 h 6.6562 z m 22.9557,16.79688 v -1.95313 q -2.0781,2.34375 -5.4375,2.34375 -2.5625,0 -3.7813,-1.29687 -1.2187,-1.29688 -1.2187,-3.57813 v -10.96875 h 4.0625 v 9.375 q 0,2.84375 2.8437,2.84375 2.0938,0 3.5313,-1.75 v -10.46875 h 4.0625 v 15.45313 z m 13.278,0.39062 q -4.3906,0 -4.3906,-4.23437 v -8.0625 h -2.5625 v -3.54688 h 2.5625 v -4.23437 h 4.0937 v 4.23437 h 3.1406 v 3.54688 h -3.1406 v 6.98437 q 0,0.73438 0.3594,1.21875 0.375,0.46875 1.0469,0.46875 0.9687,0 1.4218,-0.45312 l 0.8594,3.07812 q -1.0625,1 -3.3906,1 z m 12.8004,0 q -3.5938,0 -5.875,-2.29687 -2.2813,-2.3125 -2.2813,-5.84375 0,-3.51563 2.2813,-5.79688 2.2812,-2.29687 5.875,-2.29687 3.5781,0 5.875,2.29687 2.3125,2.28125 2.3125,5.79688 0,3.5625 -2.3125,5.85937 -2.2969,2.28125 -5.875,2.28125 z m 0,-3.625 q 1.75,0 2.8594,-1.26562 1.1093,-1.26563 1.1093,-3.25 0,-1.90625 -1.1093,-3.1875 -1.1094,-1.28125 -2.8594,-1.28125 -1.7031,0 -2.8281,1.23437 -1.1094,1.21875 -1.1094,3.23438 0,2.04687 1.1094,3.28125 1.125,1.23437 2.8281,1.23437 z"
       id="path40"
       inkscape:connector-curvature="0"
       style="fill:#ffffff;fill-rule:nonzero" />
    <path
       d="m 1187.808,405.72261 q -4.9687,0 -8.1718,-3.15625 -3.1875,-3.15625 -3.1875,-7.89062 0,-3.14063 1.4843,-5.6875 1.4844,-2.5625 4.1094,-3.95313 2.625,-1.40625 5.7656,-1.40625 5.8907,0 8.9219,5.21875 l -3.9062,1.92188 q -0.6719,-1.3125 -2.0157,-2.20313 -1.3437,-0.89062 -3,-0.89062 -2.9218,0 -4.8125,2 -1.875,2 -1.875,5 0,3.10937 1.9063,5.0625 1.9219,1.95312 4.7812,1.95312 1.6563,0 3,-0.875 1.3438,-0.89062 2.0157,-2.23437 l 3.9062,1.89062 q -3.0312,5.25 -8.9219,5.25 z m 18.7185,0 q -3.5938,0 -5.875,-2.29687 -2.2813,-2.3125 -2.2813,-5.84375 0,-3.51563 2.2813,-5.79688 2.2812,-2.29687 5.875,-2.29687 3.5781,0 5.875,2.29687 2.3125,2.28125 2.3125,5.79688 0,3.5625 -2.3125,5.85937 -2.2969,2.28125 -5.875,2.28125 z m 0,-3.625 q 1.75,0 2.8594,-1.26562 1.1093,-1.26563 1.1093,-3.25 0,-1.90625 -1.1093,-3.1875 -1.1094,-1.28125 -2.8594,-1.28125 -1.7031,0 -2.8281,1.23437 -1.1094,1.21875 -1.1094,3.23438 0,2.04687 1.1094,3.28125 1.125,1.23437 2.8281,1.23437 z m 30.368,3.23438 v -9.76563 q 0,-2.45312 -2.3125,-2.45312 -1.0781,0 -1.9218,0.57812 -0.8282,0.5625 -1.2657,1.20313 v 10.4375 h -4.1093 v -9.76563 q 0,-2.45312 -2.2969,-2.45312 -1.0625,0 -1.9063,0.59375 -0.8437,0.57812 -1.2968,1.21875 v 10.40625 h -4.0625 v -15.45313 h 4.0625 v 2.01563 q 0.5468,-0.85938 2.0312,-1.625 1.4844,-0.78125 3.0313,-0.78125 3.3593,0 4.2812,2.8125 0.7344,-1.17188 2.2031,-1.98438 1.4844,-0.82812 3.1094,-0.82812 4.5469,0 4.5469,4.67187 v 11.17188 z m 16.9203,0.39062 q -2.9687,0 -4.7656,-2.375 v 7.875 h -4.0625 v -21.34375 h 4.0625 v 1.95313 q 1.8594,-2.34375 4.7656,-2.34375 3.0781,0 4.9688,2.17187 1.8906,2.15625 1.8906,5.92188 0,3.71875 -1.875,5.9375 -1.875,2.20312 -4.9844,2.20312 z m -1.2812,-3.625 q 1.7656,0 2.8281,-1.25 1.0781,-1.25 1.0781,-3.26562 0,-2.01563 -1.0781,-3.23438 -1.0625,-1.23437 -2.8281,-1.23437 -0.9844,0 -1.9844,0.51562 -0.9844,0.5 -1.5,1.23438 v 5.48437 q 0.5156,0.73438 1.5,1.25 1,0.5 1.9844,0.5 z m 11.1092,3.23438 v -21.34375 h 4.0625 v 21.34375 z m 15.3616,0.39062 q -3.6563,0 -5.9531,-2.25 -2.2969,-2.26562 -2.2969,-5.89062 0,-3.45313 2.2812,-5.76563 2.2813,-2.32812 5.7188,-2.32812 3.4219,0 5.5781,2.35937 2.1563,2.34375 2.1563,6.15625 v 0.89063 h -11.4844 q 0.1875,1.48437 1.3281,2.54687 1.1406,1.04688 3.125,1.04688 0.9531,0 2.1406,-0.39063 1.1875,-0.40625 1.9844,-1.15625 l 1.7813,2.625 q -1.1407,1.0625 -2.8438,1.60938 -1.6875,0.54687 -3.5156,0.54687 z m 3.5469,-9.57812 q -0.094,-1.53125 -1.1563,-2.46875 -1.0469,-0.95313 -2.6406,-0.95313 -1.6094,0 -2.6406,0.98438 -1.0157,0.96875 -1.1719,2.4375 z m 12.071,9.57812 q -4.3906,0 -4.3906,-4.23437 v -8.0625 h -2.5625 v -3.54688 h 2.5625 v -4.23437 h 4.0937 v 4.23437 h 3.1407 v 3.54688 h -3.1407 v 6.98437 q 0,0.73438 0.3594,1.21875 0.375,0.46875 1.0469,0.46875 0.9687,0 1.4219,-0.45312 l 0.8593,3.07812 q -1.0625,1 -3.3906,1 z m 12.8941,0 q -3.6562,0 -5.9531,-2.25 -2.2969,-2.26562 -2.2969,-5.89062 0,-3.45313 2.2813,-5.76563 2.2812,-2.32812 5.7187,-2.32812 3.4219,0 5.5781,2.35937 2.1563,2.34375 2.1563,6.15625 v 0.89063 h -11.4844 q 0.1875,1.48437 1.3281,2.54687 1.1407,1.04688 3.125,1.04688 0.9532,0 2.1407,-0.39063 1.1875,-0.40625 1.9843,-1.15625 l 1.7813,2.625 q -1.1406,1.0625 -2.8438,1.60938 -1.6875,0.54687 -3.5156,0.54687 z m 3.5469,-9.57812 q -0.094,-1.53125 -1.1563,-2.46875 -1.0468,-0.95313 -2.6406,-0.95313 -1.6094,0 -2.6406,0.98438 -1.0156,0.96875 -1.1719,2.4375 z"
       id="path42"
       inkscape:connector-curvature="0"
       style="fill:#ffffff;fill-rule:nonzero" />
  </g>
</svg>
