<?xml version="1.0" encoding="UTF-8" standalone="no"?>
<svg
   xmlns:dc="http://purl.org/dc/elements/1.1/"
   xmlns:cc="http://creativecommons.org/ns#"
   xmlns:rdf="http://www.w3.org/1999/02/22-rdf-syntax-ns#"
   xmlns:svg="http://www.w3.org/2000/svg"
   xmlns="http://www.w3.org/2000/svg"
   xmlns:sodipodi="http://sodipodi.sourceforge.net/DTD/sodipodi-0.dtd"
   xmlns:inkscape="http://www.inkscape.org/namespaces/inkscape"
   version="1.1"
   viewBox="0 0 940 240"
   stroke-miterlimit="10"
   id="svg90"
   sodipodi:docname="RediSearch-2.svg"
   width="940"
   height="240"
   style="fill:none;stroke:none;stroke-linecap:square;stroke-miterlimit:10"
   inkscape:version="0.92.2 5c3e80d, 2017-08-06">
  <metadata
     id="metadata96">
    <rdf:RDF>
      <cc:Work
         rdf:about="">
        <dc:format>image/svg+xml</dc:format>
        <dc:type
           rdf:resource="http://purl.org/dc/dcmitype/StillImage" />
        <dc:title></dc:title>
      </cc:Work>
    </rdf:RDF>
  </metadata>
  <defs
     id="defs94" />
  <sodipodi:namedview
     pagecolor="#ffffff"
     bordercolor="#666666"
     borderopacity="1"
     objecttolerance="10"
     gridtolerance="10"
     guidetolerance="10"
     inkscape:pageopacity="0"
     inkscape:pageshadow="2"
     inkscape:window-width="1920"
     inkscape:window-height="1035"
     id="namedview92"
     showgrid="false"
     fit-margin-top="0"
     fit-margin-left="0"
     fit-margin-right="0"
     fit-margin-bottom="0"
     inkscape:zoom="0.6363961"
     inkscape:cx="635.91521"
     inkscape:cy="173.44611"
     inkscape:window-x="0"
     inkscape:window-y="0"
     inkscape:window-maximized="0"
     inkscape:current-layer="svg90" />
  <clipPath
     id="p11.0">
    <path
       d="M 0,0 H 1280 V 720 H 0 Z"
       id="path2"
       inkscape:connector-curvature="0"
       style="clip-rule:nonzero" />
  </clipPath>
  <g
     id="g991"
     transform="translate(-146.64862,-309.15251)">
    <path
       d="m 190.39864,332.60892 v 0 c 0,-4.28021 3.4698,-7.75 7.75002,-7.75 h 113.66672 c 2.05542,0 4.02667,0.8165 5.48007,2.2699 1.4534,1.45343 2.26993,3.42465 2.26993,5.4801 v 62.00003 c 0,4.28021 -3.46979,7.75 -7.75,7.75 H 198.14866 c -4.28022,0 -7.75002,-3.46979 -7.75002,-7.75 z"
       id="path40"
       inkscape:connector-curvature="0"
       style="fill:#436e92;fill-rule:evenodd" />
    <path
       d="m 371.2319,332.60892 v 0 c 0,-4.28021 3.46982,-7.75 7.75003,-7.75 h 113.66669 c 2.05545,0 4.02667,0.8165 5.4801,2.2699 1.4534,1.45343 2.2699,3.42465 2.2699,5.4801 v 62.00003 c 0,4.28021 -3.46979,7.75 -7.75,7.75 H 378.98193 c -4.28021,0 -7.75003,-3.46979 -7.75003,-7.75 z"
       id="path48"
       inkscape:connector-curvature="0"
       style="fill:#436e92;fill-rule:evenodd" />
    <path
       d="m 552.0653,332.60892 v 0 c 0,-4.28021 3.46979,-7.75 7.75,-7.75 h 113.66669 c 2.05542,0 4.02667,0.8165 5.4801,2.2699 1.45337,1.45343 2.2699,3.42465 2.2699,5.4801 v 62.00003 c 0,4.28021 -3.46979,7.75 -7.75,7.75 H 559.8153 c -4.28021,0 -7.75,-3.46979 -7.75,-7.75 z"
       id="path56"
       inkscape:connector-curvature="0"
       style="fill:#436e92;fill-rule:evenodd" />
    <path
       d="m 732.8986,332.60892 v 0 c 0,-4.28021 3.46979,-7.75 7.75,-7.75 h 113.66669 c 2.05548,0 4.02667,0.8165 5.4801,2.2699 1.45343,1.45343 2.26996,3.42465 2.26996,5.4801 v 62.00003 c 0,4.28021 -3.46985,7.75 -7.75006,7.75 H 740.6486 c -4.28021,0 -7.75,-3.46979 -7.75,-7.75 z"
       id="path64"
       inkscape:connector-curvature="0"
       style="fill:#436e92;fill-rule:evenodd" />
    <path
       d="m 913.7319,332.60892 v 0 c 0,-4.28021 3.46979,-7.75 7.75,-7.75 h 113.6667 c 2.0554,0 4.0267,0.8165 5.4801,2.2699 1.4534,1.45343 2.2699,3.42465 2.2699,5.4801 v 62.00003 c 0,4.28021 -3.4697,7.75 -7.75,7.75 H 921.4819 c -4.28021,0 -7.75,-3.46979 -7.75,-7.75 z"
       id="path72"
       inkscape:connector-curvature="0"
       style="fill:#436e92;fill-rule:evenodd" />
    <g
       id="g964">
      <path
         style="fill:#000000;fill-opacity:0;fill-rule:evenodd"
         inkscape:connector-curvature="0"
         id="path42"
         d="m 192.66855,332.6756 h 124.62689 v 61.86676 H 192.66855 Z" />
      <path
         style="fill:#ffffff;fill-rule:nonzero"
         inkscape:connector-curvature="0"
         id="path44"
         d="m 222.48991,373.75696 v -21.34375 h 13.98437 v 2.375 h -11.32812 v 6.875 h 11.09375 v 2.35937 h -11.09375 v 9.73438 z m 18.67816,-17.65625 q -0.64062,0 -1.125,-0.46875 -0.46875,-0.46875 -0.46875,-1.14063 0,-0.67187 0.46875,-1.14062 0.48438,-0.48438 1.125,-0.48438 0.67188,0 1.15625,0.48438 0.48438,0.46875 0.48438,1.14062 0,0.67188 -0.48438,1.14063 -0.48437,0.46875 -1.15625,0.46875 z m -1.17187,17.65625 v -15.45313 h 2.39062 v 15.45313 z m 7.20001,0 v -21.34375 h 2.39062 v 21.34375 z m 11.09065,0.39062 q -3.42189,0 -3.42189,-3.625 v -10.10937 h -2.5625 v -2.10938 h 2.5625 v -4.23437 h 2.40627 v 4.23437 h 3.14062 v 2.10938 h -3.14062 v 9.59375 q 0,0.875 0.375,1.4375 0.39062,0.54687 1.1875,0.54687 1,0 1.64062,-0.64062 l 0.70313,1.79687 q -1,1 -2.89063,1 z m 12.48615,0 q -3.48438,0 -5.6875,-2.26562 -2.1875,-2.28125 -2.1875,-5.875 0,-3.42188 2.17187,-5.75 2.1875,-2.34375 5.45313,-2.34375 3.32812,0 5.375,2.3125 2.04687,2.29687 2.04687,5.98437 v 0.60938 h -12.51562 q 0.125,2.35937 1.70312,3.85937 1.59375,1.48438 3.85938,1.48438 2.82812,0 4.78125,-1.95313 l 1.14062,1.5625 q -2.35937,2.375 -6.14062,2.375 z m 4.79687,-9.09375 q 0,-2.14062 -1.40625,-3.64062 -1.40625,-1.51563 -3.67187,-1.51563 -2.15625,0 -3.57813,1.51563 -1.42187,1.5 -1.48437,3.64062 z m 6.2504,8.70313 v -15.45313 h 2.39062 v 2.5 q 2.14063,-2.82812 5.15625,-2.82812 v 2.46875 l -0.96875,-0.0937 q -1.07812,0 -2.39062,0.78125 -1.3125,0.78125 -1.79688,1.6875 v 10.9375 z" />
      <path
         style="fill:#436e92;fill-rule:evenodd"
         inkscape:connector-curvature="0"
         id="path46"
         d="m 332.482,353.9989 h 13.69171 v -6.40668 l 13.69171,16.0167 -13.69171,16.01669 v -6.40668 H 332.482 Z" />
      <path
         style="fill:#000000;fill-opacity:0;fill-rule:evenodd"
         inkscape:connector-curvature="0"
         id="path50"
         d="m 373.50192,332.6756 h 124.62689 v 61.86676 H 373.50192 Z" />
      <path
         style="fill:#ffffff;fill-rule:nonzero"
         inkscape:connector-curvature="0"
         id="path52"
         d="m 404.61667,374.17883 q -4.70313,0 -7.84375,-3.15625 -3.14063,-3.15625 -3.14063,-7.92188 0,-4.82812 3.15625,-7.9375 3.15625,-3.10937 7.82813,-3.10937 5.01562,0 8.28125,4 l -2.10938,1.3125 q -1.01562,-1.3125 -2.64062,-2.125 -1.60938,-0.8125 -3.53125,-0.8125 -3.54688,0 -5.89063,2.46875 -2.32812,2.45312 -2.32812,6.20312 0,3.78125 2.34375,6.25 2.35937,2.45313 5.875,2.45313 1.59375,0 3.125,-0.625 1.54687,-0.625 2.60937,-1.67188 v -4.35937 h -7.32812 v -2.35938 h 9.96875 v 7.70313 q -3.32813,3.6875 -8.375,3.6875 z m 12.61291,-0.42188 v -15.45312 h 2.39063 v 2.5 q 2.14062,-2.82813 5.15625,-2.82813 v 2.46875 l -0.96875,-0.0937 q -1.07813,0 -2.39063,0.78125 -1.3125,0.78125 -1.79687,1.6875 v 10.9375 z m 17.31003,0.39063 q -3.35937,0 -5.51562,-2.28125 -2.14063,-2.29688 -2.14063,-5.85938 0,-3.57812 2.14063,-5.82812 2.15625,-2.26563 5.51562,-2.26563 3.35938,0 5.5,2.26563 2.14063,2.25 2.14063,5.82812 0,3.5625 -2.14063,5.85938 -2.14062,2.28125 -5.5,2.28125 z m 0,-2.15625 q 2.23438,0 3.67188,-1.67188 1.4375,-1.6875 1.4375,-4.3125 0,-2.59375 -1.4375,-4.26562 -1.4375,-1.6875 -3.67188,-1.6875 -2.25,0 -3.70312,1.67187 -1.45313,1.65625 -1.45313,4.28125 0,2.65625 1.4375,4.32813 1.4375,1.65625 3.71875,1.65625 z m 21.97589,1.76562 v -2.17187 q -0.89062,1.01562 -2.32812,1.79687 -1.4375,0.76563 -3.17188,0.76563 -4.92187,0 -4.92187,-4.9375 v -10.90625 h 2.39062 v 10.17187 q 0,1.82813 0.82813,2.67188 0.84375,0.84375 2.625,0.84375 1.40625,0 2.65625,-0.70313 1.25,-0.70312 1.92187,-1.625 v -11.35937 h 2.40625 v 15.45312 z m 14.81955,0.39063 q -3.29687,0 -5.21875,-2.73438 v 8.23438 h -2.39062 v -21.34375 h 2.39062 v 2.29687 q 0.82813,-1.1875 2.20313,-1.9375 1.39062,-0.75 3.01562,-0.75 3.10938,0 4.98438,2.1875 1.89062,2.17188 1.89062,5.90625 0,3.71875 -1.875,5.9375 -1.85937,2.20313 -5,2.20313 z m -0.60937,-2.15625 q 2.23437,0 3.59375,-1.625 1.375,-1.64063 1.375,-4.35938 0,-2.65625 -1.34375,-4.29687 -1.34375,-1.65625 -3.625,-1.65625 -1.4375,0 -2.70313,0.73437 -1.26562,0.71875 -1.90625,1.73438 v 6.98437 q 0.64063,1.01563 1.90625,1.75 1.26563,0.73438 2.70313,0.73438 z" />
      <path
         style="fill:#436e92;fill-rule:evenodd"
         inkscape:connector-curvature="0"
         id="path54"
         d="m 513.31537,353.9989 h 13.69171 v -6.40668 l 13.69171,16.0167 -13.69171,16.01669 v -6.40668 h -13.69171 z" />
      <path
         style="fill:#000000;fill-opacity:0;fill-rule:evenodd"
         inkscape:connector-curvature="0"
         id="path58"
         d="m 554.3352,332.6756 h 124.62689 v 61.86676 H 554.3352 Z" />
      <path
         style="fill:#ffffff;fill-rule:nonzero"
         inkscape:connector-curvature="0"
         id="path60"
         d="m 594.11096,373.75696 -1.89063,-4.73438 h -10.625 l -1.89062,4.73438 h -3.04688 l 8.57813,-21.34375 h 3.29687 l 8.60938,21.34375 z m -7.20313,-18.59375 -4.54687,11.48437 h 9.0625 z m 20.54041,18.98437 q -3.29688,0 -5.21875,-2.73437 v 8.23437 h -2.39063 v -21.34375 h 2.39063 v 2.29688 q 0.82812,-1.1875 2.20312,-1.9375 1.39063,-0.75 3.01563,-0.75 3.10937,0 4.98437,2.1875 1.89063,2.17187 1.89063,5.90625 0,3.71875 -1.875,5.9375 -1.85938,2.20312 -5,2.20312 z m -0.60938,-2.15625 q 2.23438,0 3.59375,-1.625 1.375,-1.64062 1.375,-4.35937 0,-2.65625 -1.34375,-4.29688 -1.34375,-1.65625 -3.625,-1.65625 -1.4375,0 -2.70312,0.73438 -1.26563,0.71875 -1.90625,1.73437 v 6.98438 q 0.64062,1.01562 1.90625,1.75 1.26562,0.73437 2.70312,0.73437 z m 18.9134,2.15625 q -3.29688,0 -5.21875,-2.73437 v 8.23437 h -2.39063 v -21.34375 h 2.39063 v 2.29688 q 0.82812,-1.1875 2.20312,-1.9375 1.39063,-0.75 3.01563,-0.75 3.10937,0 4.98437,2.1875 1.89063,2.17187 1.89063,5.90625 0,3.71875 -1.875,5.9375 -1.85938,2.20312 -5,2.20312 z m -0.60938,-2.15625 q 2.23438,0 3.59375,-1.625 1.375,-1.64062 1.375,-4.35937 0,-2.65625 -1.34375,-4.29688 -1.34375,-1.65625 -3.625,-1.65625 -1.4375,0 -2.70312,0.73438 -1.26563,0.71875 -1.90625,1.73437 v 6.98438 q 0.64062,1.01562 1.90625,1.75 1.26562,0.73437 2.70312,0.73437 z m 11.30408,1.76563 v -21.34375 h 2.39062 v 21.34375 z m 6.71563,3.875 q 0.51563,0.25 1.3125,0.25 0.79688,0 1.34375,-0.34375 0.54688,-0.32813 0.95313,-1.28125 l 1.03125,-2.34375 -6.46875,-15.60938 h 2.59375 l 5.15625,12.67188 5.10937,-12.67188 h 2.625 l -7.73437,18.59375 q -1.28125,3.0625 -4.54688,3.125 -0.92187,0 -1.76562,-0.21875 z" />
      <path
         style="fill:#436e92;fill-rule:evenodd"
         inkscape:connector-curvature="0"
         id="path62"
         d="m 694.1486,353.9989 h 13.69171 v -6.40668 l 13.69171,16.0167 -13.69171,16.01669 v -6.40668 H 694.1486 Z" />
      <path
         style="fill:#000000;fill-opacity:0;fill-rule:evenodd"
         inkscape:connector-curvature="0"
         id="path66"
         d="m 735.16864,332.6756 h 124.62689 v 61.86676 H 735.16864 Z" />
      <path
         style="fill:#ffffff;fill-rule:nonzero"
         inkscape:connector-curvature="0"
         id="path68"
         d="m 778.3763,374.14758 q -5.15625,0 -8.1875,-3.40625 l 1.5625,-2.01563 q 1.3125,1.48438 3.0625,2.26563 1.76563,0.78125 3.65625,0.78125 2.3125,0 3.67188,-1.01563 1.35937,-1.03125 1.35937,-2.65625 0,-2.53125 -3.96875,-3.625 -4.70312,-1.25 -6,-1.98437 -1.29687,-0.73438 -1.98437,-1.82813 -0.6875,-1.10937 -0.6875,-2.65625 0,-2.54687 2.0625,-4.21875 2.0625,-1.6875 5.26562,-1.6875 4.79688,0 7.57813,2.96875 l -1.59375,1.95313 q -2.3125,-2.5625 -6.17188,-2.5625 -1.92187,0 -3.15625,0.9375 -1.23437,0.92187 -1.23437,2.45312 0,1.125 1.01562,1.90625 1.03125,0.78125 2.98438,1.26563 4.54687,1.25 5.875,2.04687 1.32812,0.79688 2.04687,1.96875 0.71875,1.17188 0.71875,2.82813 0,2.95312 -2.15625,4.625 -2.14062,1.65625 -5.71875,1.65625 z m 18.50201,0 q -3.35937,0 -5.51562,-2.28125 -2.14063,-2.29688 -2.14063,-5.85938 0,-3.57812 2.14063,-5.82812 2.15625,-2.26563 5.51562,-2.26563 3.35938,0 5.5,2.26563 2.14063,2.25 2.14063,5.82812 0,3.5625 -2.14063,5.85938 -2.14062,2.28125 -5.5,2.28125 z m 0,-2.15625 q 2.23438,0 3.67188,-1.67188 1.4375,-1.6875 1.4375,-4.3125 0,-2.59375 -1.4375,-4.26562 -1.4375,-1.6875 -3.67188,-1.6875 -2.25,0 -3.70312,1.67187 -1.45313,1.65625 -1.45313,4.28125 0,2.65625 1.4375,4.32813 1.4375,1.65625 3.71875,1.65625 z m 11.55402,1.76562 v -15.45312 h 2.39063 v 2.5 q 2.14062,-2.82813 5.15625,-2.82813 v 2.46875 l -0.96875,-0.0937 q -1.07813,0 -2.39063,0.78125 -1.3125,0.78125 -1.79687,1.6875 v 10.9375 z m 14.45068,0.39063 q -3.42187,0 -3.42187,-3.625 V 360.4132 h -2.5625 v -2.10937 h 2.5625 v -4.23438 h 2.40625 v 4.23438 h 3.14062 v 2.10937 h -3.14062 v 9.59375 q 0,0.875 0.375,1.4375 0.39062,0.54688 1.1875,0.54688 1,0 1.64062,-0.64063 l 0.70313,1.79688 q -1,1 -2.89063,1 z" />
      <path
         style="fill:#436e92;fill-rule:evenodd"
         inkscape:connector-curvature="0"
         id="path70"
         d="m 874.9819,353.9989 h 13.69171 v -6.40668 l 13.69171,16.0167 -13.69171,16.01669 v -6.40668 H 874.9819 Z" />
      <path
         style="fill:#000000;fill-opacity:0;fill-rule:evenodd"
         inkscape:connector-curvature="0"
         id="path74"
         d="m 916.00183,332.6756 h 124.62687 v 61.86676 H 916.00183 Z" />
      <path
         style="fill:#ffffff;fill-rule:nonzero"
         inkscape:connector-curvature="0"
         id="path76"
         d="m 955.7775,373.75696 -1.89062,-4.73438 h -10.625 l -1.89063,4.73438 h -3.04687 l 8.57812,-21.34375 h 3.29688 l 8.60937,21.34375 z m -7.20312,-18.59375 -4.54688,11.48437 h 9.0625 z m 20.5404,18.98437 q -3.29688,0 -5.21875,-2.73437 v 8.23437 h -2.39063 v -21.34375 h 2.39063 v 2.29688 q 0.82812,-1.1875 2.20312,-1.9375 1.39063,-0.75 3.01563,-0.75 3.10937,0 4.98437,2.1875 1.89063,2.17187 1.89063,5.90625 0,3.71875 -1.875,5.9375 -1.85938,2.20312 -5,2.20312 z m -0.60938,-2.15625 q 2.23438,0 3.59375,-1.625 1.375,-1.64062 1.375,-4.35937 0,-2.65625 -1.34375,-4.29688 -1.34375,-1.65625 -3.625,-1.65625 -1.4375,0 -2.70312,0.73438 -1.26563,0.71875 -1.90625,1.73437 v 6.98438 q 0.64062,1.01562 1.90625,1.75 1.26562,0.73437 2.70312,0.73437 z m 18.91346,2.15625 q -3.29688,0 -5.21875,-2.73437 v 8.23437 h -2.39063 v -21.34375 h 2.39063 v 2.29688 q 0.82812,-1.1875 2.20312,-1.9375 1.39063,-0.75 3.01563,-0.75 3.10937,0 4.98437,2.1875 1.89063,2.17187 1.89063,5.90625 0,3.71875 -1.875,5.9375 -1.85938,2.20312 -5,2.20312 z m -0.60938,-2.15625 q 2.23438,0 3.59375,-1.625 1.375,-1.64062 1.375,-4.35937 0,-2.65625 -1.34375,-4.29688 -1.34375,-1.65625 -3.625,-1.65625 -1.4375,0 -2.70312,0.73438 -1.26563,0.71875 -1.90625,1.73437 v 6.98438 q 0.64062,1.01562 1.90625,1.75 1.26562,0.73437 2.70312,0.73437 z m 11.30402,1.76563 v -21.34375 h 2.3906 v 21.34375 z m 6.7156,3.875 q 0.5157,0.25 1.3125,0.25 0.7969,0 1.3438,-0.34375 0.5469,-0.32813 0.9531,-1.28125 l 1.0313,-2.34375 -6.4688,-15.60938 h 2.5938 l 5.1562,12.67188 5.1094,-12.67188 h 2.625 l -7.7344,18.59375 q -1.2812,3.0625 -4.5469,3.125 -0.9218,0 -1.7656,-0.21875 z" />
      <path
         style="fill:#436e92;fill-rule:evenodd"
         inkscape:connector-curvature="0"
         id="path78"
         d="m 445.42538,426.8774 v 13.69171 h 6.40668 l -16.0167,13.69171 -16.01669,-13.69171 h 6.40668 V 426.8774 Z" />
      <path
         style="fill:#436e92;fill-rule:evenodd"
         inkscape:connector-curvature="0"
         id="path80"
         d="m 426.20535,431.11795 v -13.69171 h -6.40668 l 16.0167,-13.69171 16.01669,13.69171 h -6.40668 v 13.69171 z" />
      <path
         style="fill:#436e92;fill-rule:evenodd"
         inkscape:connector-curvature="0"
         id="path82"
         d="m 371.14853,463.63257 v 0 c 0,-4.15314 3.36679,-7.5199 7.51993,-7.5199 h 114.29361 c 1.99441,0 3.90713,0.79227 5.31738,2.20252 1.41025,1.41024 2.20252,3.32296 2.20252,5.31738 v 62.29364 c 0,4.15308 -3.36676,7.5199 -7.5199,7.5199 H 378.66846 c -4.15314,0 -7.51993,-3.36682 -7.51993,-7.5199 z" />
      <path
         style="fill:#000000;fill-opacity:0;fill-rule:evenodd"
         inkscape:connector-curvature="0"
         id="path84"
         d="m 365.7454,463.1785 h 138.83478 v 61.07095 H 365.7454 Z" />
      <path
         style="fill:#ffffff;fill-rule:nonzero"
         inkscape:connector-curvature="0"
         id="path86"
         d="m 396.80643,503.86197 -5.4375,-8.48438 h -4.25 v 8.48438 h -2.65625 v -21.34375 h 8.57812 q 3,0 4.84375,1.79687 1.84375,1.78125 1.84375,4.64063 0,2.6875 -1.5625,4.34375 -1.54687,1.64062 -3.98437,1.85937 l 5.76562,8.70313 z m -4.09375,-10.8125 q 1.92187,0 3.09375,-1.14063 1.17187,-1.14062 1.17187,-2.95312 0,-1.82813 -1.17187,-2.9375 -1.17188,-1.125 -3.09375,-1.125 h -5.59375 v 8.15625 z m 17.12103,11.20312 q -3.48437,0 -5.6875,-2.26562 -2.1875,-2.28125 -2.1875,-5.875 0,-3.42188 2.17188,-5.75 2.1875,-2.34375 5.45312,-2.34375 3.32813,0 5.375,2.3125 2.04688,2.29687 2.04688,5.98437 v 0.60938 h -12.51563 q 0.125,2.35937 1.70313,3.85937 1.59375,1.48438 3.85937,1.48438 2.82813,0 4.78125,-1.95313 l 1.14063,1.5625 q -2.35938,2.375 -6.14063,2.375 z m 4.79688,-9.09375 q 0,-2.14062 -1.40625,-3.64062 -1.40625,-1.51563 -3.67188,-1.51563 -2.15625,0 -3.57812,1.51563 -1.42188,1.5 -1.48438,3.64062 z m 17.43792,8.70313 v -2.29688 q -0.85937,1.17188 -2.21875,1.9375 -1.35937,0.75 -2.98437,0.75 -3.10938,0 -5,-2.20312 -1.89063,-2.21875 -1.89063,-5.90625 0,-3.70313 1.90625,-5.90625 1.90625,-2.21875 4.98438,-2.21875 1.5625,0 2.92187,0.71875 1.35938,0.71875 2.28125,2 v -8.21875 h 2.40625 v 21.34375 z m -4.64062,-1.76563 q 1.45312,0 2.71875,-0.70312 1.28125,-0.70313 1.92187,-1.71875 v -7.01563 q -0.64062,-1.01562 -1.92187,-1.75 -1.26563,-0.75 -2.71875,-0.75 -2.23438,0 -3.59375,1.64063 -1.35938,1.625 -1.35938,4.34375 0,2.65625 1.34375,4.3125 1.34375,1.64062 3.60938,1.64062 z m 22.27502,1.76563 v -2.17188 q -0.89062,1.01563 -2.32812,1.79688 -1.4375,0.76562 -3.17188,0.76562 -4.92187,0 -4.92187,-4.9375 v -10.90625 h 2.39062 v 10.17188 q 0,1.82812 0.82813,2.67187 0.84375,0.84375 2.625,0.84375 1.40625,0 2.65625,-0.70312 1.25,-0.70313 1.92187,-1.625 v -11.35938 h 2.40625 v 15.45313 z m 14.02268,0.39062 q -3.39063,0 -5.5625,-2.29687 -2.15625,-2.3125 -2.15625,-5.84375 0,-3.48438 2.15625,-5.78125 2.17187,-2.3125 5.5625,-2.3125 3.57812,0 5.65625,2.6875 l -1.59375,1.46875 q -1.46875,-2.01563 -3.9375,-2.01563 -2.375,0 -3.85938,1.65625 -1.48437,1.64063 -1.48437,4.29688 0,2.6875 1.46875,4.34375 1.46875,1.64062 3.875,1.64062 2.4375,0 3.9375,-2.01562 l 1.59375,1.48437 q -2.07813,2.6875 -5.65625,2.6875 z m 15.99628,0 q -3.48438,0 -5.6875,-2.26562 -2.1875,-2.28125 -2.1875,-5.875 0,-3.42188 2.17187,-5.75 2.1875,-2.34375 5.45313,-2.34375 3.32812,0 5.375,2.3125 2.04687,2.29687 2.04687,5.98437 v 0.60938 h -12.51562 q 0.125,2.35937 1.70312,3.85937 1.59375,1.48438 3.85938,1.48438 2.82812,0 4.78125,-1.95313 l 1.14062,1.5625 q -2.35937,2.375 -6.14062,2.375 z m 4.79687,-9.09375 q 0,-2.14062 -1.40625,-3.64062 -1.40625,-1.51563 -3.67187,-1.51563 -2.15625,0 -3.57813,1.51563 -1.42187,1.5 -1.48437,3.64062 z" />
    </g>
  </g>
</svg>
