<?xml version="1.0" encoding="UTF-8"?><svg xmlns="http://www.w3.org/2000/svg" width="750" height="210" version="1.0" shape-rendering="geometricPrecision"><defs><style type="text/css">@font-face {
  font-family: sans-serif;
}</style><filter id="shadowBlur" x="0" y="0" width="200%" height="200%"><feOffset in="SourceGraphic" dx="3.0003002" dy="3.0003002" result="offOut"></feOffset><feGaussianBlur in="offOut" stdDeviation="3"></feGaussianBlur></filter></defs><g stroke-width="1" stroke-linecap="square" stroke-linejoin="round"><rect x="0" y="0" width="750" height="210" style="fill: #ffffff"></rect><path stroke="#000000" stroke-width="1.0" stroke-linecap="round" stroke-linejoin="round" fill="white" d="M85.0 147.0 L85.0 175.0 L245.0 175.0 L245.0 147.0 z"></path><path stroke="#000000" stroke-width="1.0" stroke-linecap="round" stroke-linejoin="round" fill="#ee3322" d="M405.0 147.0 L405.0 175.0 L245.0 175.0 L245.0 147.0 z"></path><path stroke="#000000" stroke-width="1.0" stroke-linecap="round" stroke-linejoin="round" fill="white" d="M565.0 147.0 L565.0 175.0 L405.0 175.0 L405.0 147.0 z"></path><path stroke="#000000" stroke-width="1.0" stroke-linecap="round" stroke-linejoin="round" fill="white" d="M725.0 147.0 L725.0 175.0 L565.0 175.0 L565.0 147.0 z"></path><path stroke="#000000" stroke-width="1.0" stroke-linecap="round" stroke-linejoin="round" fill="white" d="M245.0 35.0 L245.0 63.0 L85.0 63.0 L85.0 35.0 z"></path><path stroke="#000000" stroke-width="1.0" stroke-linecap="round" stroke-linejoin="round" fill="#ee3322" d="M405.0 35.0 L405.0 63.0 L245.0 63.0 L245.0 35.0 z"></path><path stroke="#000000" stroke-width="1.0" stroke-linecap="round" stroke-linejoin="round" fill="white" d="M565.0 35.0 L565.0 63.0 L405.0 63.0 L405.0 35.0 z"></path><path stroke="#000000" stroke-width="1.0" stroke-linecap="round" stroke-linejoin="round" fill="white" d="M565.0 35.0 L565.0 63.0 L725.0 63.0 L725.0 35.0 z"></path><path stroke="#000000" stroke-width="1.0" stroke-linecap="round" stroke-linejoin="round" fill="#ee3322" d="M85.0 119.0 L85.0 91.0 L245.0 91.0 L245.0 119.0 z"></path><path stroke="#000000" stroke-width="1.0" stroke-linecap="round" stroke-linejoin="round" fill="white" d="M405.0 91.0 L405.0 119.0 L245.0 119.0 L245.0 91.0 z"></path><path stroke="#000000" stroke-width="1.0" stroke-linecap="round" stroke-linejoin="round" fill="white" d="M565.0 91.0 L565.0 119.0 L405.0 119.0 L405.0 91.0 z"></path><path stroke="#000000" stroke-width="1.0" stroke-linecap="round" stroke-linejoin="round" fill="white" d="M565.0 91.0 L565.0 119.0 L725.0 119.0 L725.0 91.0 z"></path><text x="307" y="54" font-family="sans-serif" font-size="15" stroke="none" fill="#000000"><![CDATA[art∶3]]></text><text x="25" y="110" font-family="sans-serif" font-size="15" stroke="none" fill="#000000"><![CDATA[tag∶2]]></text><text x="307" y="110" font-family="sans-serif" font-size="15" stroke="none" fill="#000000"><![CDATA[art∶4]]></text><text x="25" y="166" font-family="sans-serif" font-size="15" stroke="none" fill="#000000"><![CDATA[tag∶3]]></text><text x="307" y="166" font-family="sans-serif" font-size="15" stroke="none" fill="#000000"><![CDATA[art∶3]]></text><text x="147" y="54" font-family="sans-serif" font-size="15" stroke="none" fill="#000000"><![CDATA[art∶1]]></text><text x="467" y="110" font-family="sans-serif" font-size="15" stroke="none" fill="#000000"><![CDATA[art∶7]]></text><text x="147" y="110" font-family="sans-serif" font-size="15" stroke="none" fill="#000000"><![CDATA[art∶3]]></text><text x="467" y="166" font-family="sans-serif" font-size="15" stroke="none" fill="#000000"><![CDATA[art∶9]]></text><text x="147" y="166" font-family="sans-serif" font-size="15" stroke="none" fill="#000000"><![CDATA[art∶2]]></text><text x="25" y="54" font-family="sans-serif" font-size="15" stroke="none" fill="#000000"><![CDATA[tag∶1]]></text></g></svg>