<?xml version="1.0" encoding="UTF-8"?><svg xmlns="http://www.w3.org/2000/svg" width="280" height="182" version="1.0" shape-rendering="geometricPrecision"><defs><style type="text/css">@font-face {
  font-family: sans-serif;
}</style><filter id="shadowBlur" x="0" y="0" width="200%" height="200%"><feOffset in="SourceGraphic" dx="3.0003002" dy="3.0003002" result="offOut"></feOffset><feGaussianBlur in="offOut" stdDeviation="3"></feGaussianBlur></filter></defs><g stroke-width="1" stroke-linecap="square" stroke-linejoin="round"><rect x="0" y="0" width="280" height="182" style="fill: #ffffff"></rect><path stroke="#000000" stroke-width="1.0" stroke-linecap="round" stroke-linejoin="round" fill="white" d="M255.0 91.0 L255.0 119.0 L175.0 119.0 L175.0 91.0 z"></path><path stroke="#000000" stroke-width="1.0" stroke-linecap="round" stroke-linejoin="round" fill="white" d="M255.0 119.0 L255.0 147.0 L175.0 147.0 L175.0 119.0 z"></path><path stroke="#000000" stroke-width="1.0" stroke-linecap="round" stroke-linejoin="round" fill="white" d="M175.0 91.0 L175.0 119.0 L105.0 119.0 L105.0 91.0 z"></path><path stroke="#000000" stroke-width="1.0" stroke-linecap="round" stroke-linejoin="round" fill="white" d="M105.0 147.0 L105.0 119.0 L175.0 119.0 L175.0 147.0 z"></path><path stroke="none" stroke-width="1.0" stroke-linecap="round" stroke-linejoin="round" fill="#000000" d="M50.0 42.0 L60.0 49.0 L50.0 56.0 z"></path><path stroke="#000000" stroke-width="1.0" stroke-linecap="round" stroke-linejoin="round" fill="none" d="M45.0 63.0 L45.0 77.0 L55.0 77.0 "></path><path stroke="#000000" stroke-width="1.0" stroke-linecap="round" stroke-linejoin="round" fill="none" d="M245.0 35.0 L115.0 35.0 "></path><path stroke="#000000" stroke-width="1.0" stroke-linecap="round" stroke-linejoin="round" fill="none" d="M215.0 63.0 L215.0 77.0 "></path><path stroke="#000000" stroke-width="1.0" stroke-linecap="round" stroke-linejoin="round" fill="none" d="M135.0 63.0 L135.0 49.0 "></path><path stroke="#000000" stroke-width="1.0" stroke-linecap="round" stroke-linejoin="round" fill="none" d="M135.0 63.0 L135.0 77.0 "></path><path stroke="#000000" stroke-width="1.0" stroke-linecap="round" stroke-linejoin="round" fill="none" d="M65.0 63.0 L65.0 49.0 "></path><path stroke="#000000" stroke-width="1.0" stroke-linecap="round" stroke-linejoin="round" fill="none" d="M65.0 63.0 L65.0 77.0 "></path><path stroke="#000000" stroke-width="1.0" stroke-linecap="round" stroke-linejoin="round" fill="none" d="M135.0 63.0 L65.0 63.0 "></path><path stroke="#000000" stroke-width="1.0" stroke-linecap="round" stroke-linejoin="round" fill="none" d="M215.0 63.0 L135.0 63.0 "></path><path stroke="#000000" stroke-width="1.0" stroke-linecap="round" stroke-linejoin="round" fill="none" d="M215.0 49.0 L215.0 63.0 "></path><text x="150" y="54" font-family="sans-serif" font-size="15" stroke="none" fill="#000000"><![CDATA[44000]]></text><text x="190" y="110" font-family="sans-serif" font-size="15" stroke="none" fill="#000000"><![CDATA[21000]]></text><text x="150" y="82" font-family="sans-serif" font-size="15" stroke="none" fill="#000000"><![CDATA[35000]]></text><text x="190" y="138" font-family="sans-serif" font-size="15" stroke="none" fill="#000000"><![CDATA[10000]]></text><text x="85" y="54" font-family="sans-serif" font-size="15" stroke="none" fill="#000000"><![CDATA[id∶3]]></text><text x="125" y="110" font-family="sans-serif" font-size="15" stroke="none" fill="#000000"><![CDATA[id∶2]]></text><text x="85" y="82" font-family="sans-serif" font-size="15" stroke="none" fill="#000000"><![CDATA[id∶4]]></text><text x="125" y="138" font-family="sans-serif" font-size="15" stroke="none" fill="#000000"><![CDATA[id∶1]]></text></g></svg>