<?xml version="1.0" encoding="UTF-8"?><svg xmlns="http://www.w3.org/2000/svg" width="200" height="182" version="1.0" shape-rendering="geometricPrecision"><defs><style type="text/css">@font-face {
  font-family: sans-serif;
}</style><filter id="shadowBlur" x="0" y="0" width="200%" height="200%"><feOffset in="SourceGraphic" dx="3.0003002" dy="3.0003002" result="offOut"></feOffset><feGaussianBlur in="offOut" stdDeviation="3"></feGaussianBlur></filter></defs><g stroke-width="1" stroke-linecap="square" stroke-linejoin="round"><rect x="0" y="0" width="200" height="182" style="fill: #ffffff"></rect><path stroke="#000000" stroke-width="1.0" stroke-linecap="round" stroke-linejoin="round" fill="white" d="M175.0 35.0 L175.0 63.0 L95.0 63.0 L95.0 35.0 z"></path><path stroke="#000000" stroke-width="1.0" stroke-linecap="round" stroke-linejoin="round" fill="white" d="M175.0 63.0 L175.0 91.0 L95.0 91.0 L95.0 63.0 z"></path><path stroke="#000000" stroke-width="1.0" stroke-linecap="round" stroke-linejoin="round" fill="white" d="M175.0 91.0 L175.0 119.0 L95.0 119.0 L95.0 91.0 z"></path><path stroke="#000000" stroke-width="1.0" stroke-linecap="round" stroke-linejoin="round" fill="white" d="M95.0 147.0 L175.0 147.0 L175.0 119.0 L95.0 119.0 z"></path><path stroke="#000000" stroke-width="1.0" stroke-linecap="round" stroke-linejoin="round" fill="white" d="M25.0 35.0 L25.0 63.0 L95.0 63.0 L95.0 35.0 z"></path><path stroke="#000000" stroke-width="1.0" stroke-linecap="round" stroke-linejoin="round" fill="white" d="M25.0 63.0 L25.0 91.0 L95.0 91.0 L95.0 63.0 z"></path><path stroke="#000000" stroke-width="1.0" stroke-linecap="round" stroke-linejoin="round" fill="white" d="M25.0 91.0 L25.0 119.0 L95.0 119.0 L95.0 91.0 z"></path><path stroke="#000000" stroke-width="1.0" stroke-linecap="round" stroke-linejoin="round" fill="white" d="M25.0 119.0 L25.0 147.0 L95.0 147.0 L95.0 119.0 z"></path><text x="45" y="82" font-family="sans-serif" font-size="15" stroke="none" fill="#000000"><![CDATA[id∶4]]></text><text x="45" y="110" font-family="sans-serif" font-size="15" stroke="none" fill="#000000"><![CDATA[id∶2]]></text><text x="45" y="138" font-family="sans-serif" font-size="15" stroke="none" fill="#000000"><![CDATA[id∶1]]></text><text x="110" y="54" font-family="sans-serif" font-size="15" stroke="none" fill="#000000"><![CDATA[44000]]></text><text x="110" y="82" font-family="sans-serif" font-size="15" stroke="none" fill="#000000"><![CDATA[35000]]></text><text x="110" y="110" font-family="sans-serif" font-size="15" stroke="none" fill="#000000"><![CDATA[21000]]></text><text x="110" y="138" font-family="sans-serif" font-size="15" stroke="none" fill="#000000"><![CDATA[10000]]></text><text x="45" y="54" font-family="sans-serif" font-size="15" stroke="none" fill="#000000"><![CDATA[id∶3]]></text></g></svg>